<svg width="35" height="35" viewBox="0 0 35 35" fill="none" xmlns="http://www.w3.org/2000/svg">
<path fill-rule="evenodd" clip-rule="evenodd" d="M0 17.5C0 7.8252 7.82509 0 17.4998 0C27.1744 0 35.0707 7.8252 34.9995 17.5C34.9995 27.1748 27.1744 35 17.4998 35C7.82509 35 0 27.1748 0 17.5ZM25.2537 25.6809C26.2496 24.685 26.8187 23.2622 26.8187 21.626V13.8008C26.8187 12.1646 26.3208 10.813 25.3249 9.81707C24.3289 8.82114 22.9773 8.25203 21.3412 8.25203H13.5161C10.1726 8.25203 7.96737 10.5285 7.96737 13.8008V21.626C7.96737 23.2622 8.46533 24.685 9.53239 25.6809C10.5283 26.6768 11.9511 27.1748 13.5161 27.1748H21.27C22.8351 27.1748 24.2578 26.6768 25.2537 25.6809ZM21.27 9.95939H13.4449C12.3067 9.95939 11.3108 10.3151 10.6706 10.9553C10.0303 11.5956 9.67463 12.5915 9.67463 13.7297V21.5549C9.67463 22.6931 10.0303 23.6891 10.7417 24.4004C11.4531 25.0407 12.3778 25.3964 13.516 25.3964H21.27C22.4082 25.3964 23.4041 25.0407 24.0444 24.4004C24.7557 23.7602 25.1114 22.7643 25.1114 21.6261V13.8009C25.1114 12.6626 24.7557 11.7378 24.1155 11.0265C23.4041 10.3151 22.4793 9.95939 21.27 9.95939ZM17.3575 22.4797C14.6542 22.4797 12.5201 20.2744 12.5201 17.6423C12.5201 14.9391 14.7254 12.8049 17.3575 12.8049C19.9895 12.8049 22.2659 14.9391 22.2659 17.6423C22.2659 20.3456 20.0607 22.4797 17.3575 22.4797ZM22.4082 13.7297C21.768 13.7297 21.27 13.2317 21.27 12.5915C21.27 11.9513 21.768 11.4533 22.4082 11.4533C23.0484 11.4533 23.5464 11.9513 23.5464 12.5915C23.5464 13.2317 23.0484 13.7297 22.4082 13.7297ZM17.3575 20.7724C19.0861 20.7724 20.4875 19.371 20.4875 17.6423C20.4875 15.9136 19.0861 14.5122 17.3575 14.5122C15.6288 14.5122 14.2274 15.9136 14.2274 17.6423C14.2274 19.371 15.6288 20.7724 17.3575 20.7724Z" fill="black"/>
</svg>
