<svg width="35" height="35" viewBox="0 0 35 35" fill="none" xmlns="http://www.w3.org/2000/svg">
<path fill-rule="evenodd" clip-rule="evenodd" d="M19.9307 10.6651C18.403 11.221 17.4376 12.6548 17.5473 14.224L17.584 14.8295L16.9727 14.7554C14.7484 14.4713 12.8047 13.5077 11.1545 11.8883L10.3477 11.0851L10.1401 11.6783C9.70025 13.0007 9.98142 14.3973 10.8978 15.3364C11.3867 15.8556 11.2764 15.9297 10.4335 15.6205C10.1401 15.5219 9.88342 15.4478 9.85892 15.4846C9.77375 15.5715 10.0666 16.6956 10.2987 17.1407C10.6167 17.759 11.2642 18.3639 11.9735 18.7227L12.5726 19.0068L11.8638 19.019C11.1796 19.019 11.1551 19.0312 11.2286 19.2914C11.473 20.0947 12.4384 20.9475 13.5141 21.3185L14.2718 21.5775L13.6121 21.973C12.6344 22.5423 11.4852 22.8632 10.3361 22.8871C9.78542 22.8993 9.33333 22.9489 9.33333 22.9862C9.33333 23.1093 10.8249 23.8012 11.6923 24.0736C14.2957 24.8768 17.3886 24.5303 19.7108 23.1589C21.3611 22.1824 23.0107 20.2422 23.7813 18.3633C24.1973 17.3629 24.6126 15.5336 24.6126 14.6568C24.6126 14.0881 24.6493 14.014 25.3336 13.3344C25.7372 12.9389 26.1158 12.5067 26.1893 12.383C26.3118 12.1479 26.299 12.1479 25.676 12.3579C24.6371 12.7289 24.4901 12.6793 25.004 12.1234C25.3826 11.7279 25.8353 11.011 25.8353 10.801C25.8353 10.7642 25.6521 10.8255 25.4438 10.9369C25.2239 11.0606 24.7351 11.2461 24.3682 11.3569L23.7084 11.5675L23.1093 11.1592C22.7792 10.9369 22.3154 10.6896 22.0704 10.6155C21.4468 10.4428 20.4931 10.4673 19.9307 10.6651ZM17.5 35C7.83533 35 0 27.1647 0 17.5C0 7.83475 7.83533 0 17.5 0C27.1647 0 35 7.83475 35 17.5C35 27.1647 27.1647 35 17.5 35Z" fill="#010101"/>
</svg>
