<svg width="497" height="371" viewBox="0 0 497 371" fill="none" xmlns="http://www.w3.org/2000/svg">
<path d="M449.16 353.28C447.17 353.55 445.19 353.81 443.23 354.07C441.27 354.33 439.31 354.58 437.37 354.83C435.43 355.08 433.5 355.32 431.58 355.56C429.66 355.8 427.76 356.03 425.86 356.26C423.96 356.49 422.08 356.71 420.21 356.93C418.34 357.15 416.47 357.36 414.62 357.57C412.77 357.78 410.93 357.98 409.09 358.18C407.26 358.38 405.44 358.57 403.62 358.76C401.8 358.95 400.01 359.14 398.21 359.32C396.42 359.5 394.63 359.68 392.86 359.85C391.09 360.02 389.32 360.19 387.57 360.36C385.81 360.53 384.07 360.69 382.33 360.84C380.59 360.99 378.86 361.15 377.14 361.3C375.42 361.45 373.71 361.6 372 361.74C370.3 361.88 368.6 362.02 366.91 362.16C365.22 362.3 363.54 362.43 361.87 362.56C360.2 362.69 358.53 362.81 356.87 362.94C355.21 363.06 353.56 363.18 351.91 363.3C350.26 363.42 348.63 363.53 346.99 363.64C345.36 363.75 343.73 363.85 342.11 363.96C340.49 364.06 338.88 364.16 337.27 364.26C335.66 364.36 334.06 364.45 332.47 364.54C330.87 364.63 329.28 364.72 327.7 364.8C326.12 364.89 324.54 364.97 322.96 365.05C321.39 365.13 319.82 365.21 318.25 365.28C316.69 365.35 315.13 365.43 313.57 365.49C312.01 365.56 310.46 365.63 308.92 365.69C307.37 365.75 305.83 365.81 304.29 365.87C302.75 365.93 301.22 365.98 299.68 366.04C298.15 366.09 296.62 366.14 295.09 366.19C293.56 366.24 292.04 366.28 290.52 366.33C289 366.37 287.48 366.42 285.97 366.45C284.46 366.49 282.95 366.53 281.44 366.56C279.93 366.59 278.42 366.63 276.92 366.66C275.42 366.69 273.91 366.72 272.41 366.74C270.91 366.76 269.41 366.79 267.91 366.81C266.41 366.83 264.92 366.85 263.42 366.86C261.92 366.88 260.43 366.89 258.94 366.9C257.45 366.91 255.95 366.92 254.46 366.93C252.97 366.94 251.48 366.94 249.98 366.94C248.49 366.94 247 366.94 245.5 366.94C244 366.94 242.52 366.93 241.02 366.93C239.53 366.92 238.03 366.91 236.54 366.9C235.05 366.89 233.55 366.88 232.06 366.86C230.56 366.84 229.07 366.83 227.57 366.81C226.07 366.79 224.57 366.77 223.07 366.74C221.57 366.72 220.07 366.69 218.56 366.66C217.06 366.63 215.55 366.6 214.04 366.56C212.53 366.53 211.02 366.49 209.51 366.45C208 366.41 206.48 366.37 204.96 366.33C203.44 366.29 201.92 366.24 200.39 366.19C198.86 366.14 197.34 366.09 195.8 366.04C194.27 365.99 192.73 365.93 191.19 365.87C189.65 365.81 188.11 365.75 186.56 365.69C185.01 365.63 183.46 365.56 181.91 365.49C180.35 365.42 178.79 365.35 177.23 365.28C175.67 365.21 174.1 365.13 172.52 365.05C170.95 364.97 169.37 364.89 167.78 364.8C166.2 364.71 164.61 364.63 163.01 364.54C161.41 364.45 159.81 364.36 158.21 364.26C156.61 364.16 154.99 364.06 153.37 363.96C151.75 363.86 150.13 363.75 148.49 363.64C146.85 363.53 145.22 363.42 143.57 363.3C141.92 363.18 140.27 363.07 138.61 362.94C136.95 362.81 135.28 362.69 133.61 362.56C131.94 362.43 130.26 362.3 128.57 362.16C126.88 362.02 125.18 361.89 123.48 361.74C121.78 361.6 120.06 361.45 118.34 361.3C116.62 361.15 114.89 361 113.15 360.84C111.41 360.68 109.67 360.52 107.91 360.36C106.15 360.19 104.39 360.03 102.62 359.85C100.85 359.68 99.06 359.5 97.27 359.32C95.48 359.14 93.68 358.95 91.86 358.76C90.05 358.57 88.23 358.38 86.39 358.18C84.56 357.98 82.72 357.78 80.86 357.57C79.01 357.36 77.14 357.15 75.27 356.93C73.4 356.71 71.51 356.49 69.62 356.26C67.73 356.03 65.82 355.8 63.9 355.56C61.98 355.32 60.05 355.08 58.11 354.83C56.17 354.58 54.22 354.33 52.25 354.07C50.29 353.81 48.31 353.55 46.32 353.28C44.93 353.09 43.54 352.76 42.16 352.31C40.78 351.86 39.42 351.28 38.08 350.6C36.75 349.92 35.44 349.13 34.18 348.25C32.92 347.37 31.71 346.4 30.57 345.36C29.42 344.32 28.34 343.2 27.34 342.03C26.34 340.86 25.43 339.62 24.61 338.35C23.79 337.08 23.09 335.76 22.5 334.41C21.91 333.06 21.44 331.69 21.11 330.3C20.65 328.34 20.2 326.39 19.76 324.46C19.32 322.53 18.9 320.61 18.49 318.71C18.08 316.81 17.68 314.93 17.29 313.06C16.9 311.19 16.53 309.34 16.16 307.5C15.79 305.66 15.44 303.83 15.1 302.02C14.76 300.21 14.42 298.41 14.1 296.62C13.78 294.83 13.46 293.06 13.16 291.3C12.86 289.54 12.56 287.79 12.28 286.06C12 284.33 11.72 282.6 11.46 280.89C11.2 279.18 10.94 277.48 10.69 275.79C10.44 274.1 10.2 272.43 9.97001 270.76C9.74001 269.09 9.52001 267.44 9.30001 265.79C9.08001 264.14 8.88001 262.51 8.68001 260.88C8.48001 259.25 8.29001 257.64 8.10001 256.03C7.92001 254.42 7.74001 252.82 7.57001 251.23C7.40001 249.64 7.24001 248.05 7.08001 246.48C6.92001 244.9 6.77001 243.34 6.63001 241.77C6.49001 240.21 6.35001 238.65 6.22001 237.11C6.09001 235.57 5.97001 234.02 5.85001 232.49C5.73001 230.96 5.62001 229.42 5.52001 227.9C5.41001 226.38 5.32001 224.86 5.22001 223.34C5.13001 221.83 5.04001 220.32 4.96001 218.81C4.88001 217.3 4.80001 215.8 4.73001 214.31C4.66001 212.81 4.59001 211.32 4.54001 209.83C4.48001 208.34 4.43001 206.85 4.38001 205.37C4.33001 203.89 4.29001 202.4 4.25001 200.92C4.21001 199.44 4.18001 197.96 4.15001 196.48C4.12001 195 4.10001 193.53 4.09001 192.05C4.08001 190.57 4.06001 189.1 4.06001 187.63C4.05001 186.16 4.05001 184.68 4.06001 183.21C4.07001 181.74 4.08001 180.26 4.09001 178.79C4.10001 177.32 4.13001 175.84 4.15001 174.36C4.18001 172.88 4.21001 171.4 4.25001 169.92C4.29001 168.44 4.33001 166.96 4.38001 165.47C4.43001 163.98 4.48001 162.5 4.54001 161.01C4.60001 159.52 4.66001 158.03 4.73001 156.53C4.80001 155.03 4.88001 153.53 4.96001 152.03C5.04001 150.53 5.13001 149.02 5.22001 147.5C5.31001 145.99 5.41001 144.47 5.52001 142.94C5.63001 141.42 5.74001 139.89 5.85001 138.35C5.96001 136.81 6.09001 135.27 6.22001 133.73C6.35001 132.19 6.49001 130.63 6.63001 129.07C6.77001 127.51 6.92001 125.94 7.08001 124.36C7.24001 122.78 7.40001 121.2 7.57001 119.61C7.74001 118.02 7.92001 116.42 8.10001 114.81C8.28001 113.2 8.48001 111.58 8.68001 109.96C8.88001 108.33 9.09001 106.7 9.30001 105.05C9.52001 103.4 9.74001 101.75 9.97001 100.08C10.2 98.41 10.44 96.74 10.69 95.05C10.94 93.36 11.19 91.66 11.46 89.95C11.73 88.24 12 86.52 12.28 84.78C12.56 83.05 12.86 81.3 13.16 79.54C13.46 77.78 13.78 76.01 14.1 74.22C14.42 72.43 14.76 70.64 15.1 68.82C15.44 67.01 15.8 65.18 16.16 63.34C16.53 61.5 16.9 59.65 17.29 57.78C17.68 55.91 18.08 54.03 18.49 52.13C18.9 50.23 19.33 48.31 19.76 46.38C20.2 44.45 20.65 42.5 21.11 40.54C21.44 39.15 21.91 37.78 22.5 36.43C23.09 35.08 23.8 33.77 24.61 32.49C25.42 31.21 26.34 29.98 27.34 28.81C28.34 27.64 29.42 26.52 30.57 25.48C31.72 24.44 32.93 23.47 34.18 22.59C35.44 21.71 36.74 20.92 38.08 20.24C39.42 19.56 40.78 18.98 42.16 18.53C43.54 18.08 44.93 17.75 46.32 17.56C48.31 17.29 50.29 17.03 52.25 16.77C54.21 16.51 56.17 16.26 58.11 16.01C60.05 15.76 61.98 15.52 63.9 15.28C65.82 15.04 67.72 14.81 69.62 14.58C71.52 14.35 73.4 14.13 75.27 13.91C77.14 13.69 79.01 13.48 80.86 13.27C82.71 13.06 84.55 12.86 86.39 12.66C88.22 12.46 90.04 12.27 91.86 12.08C93.67 11.89 95.47 11.7 97.27 11.52C99.06 11.34 100.85 11.16 102.62 10.99C104.39 10.82 106.16 10.65 107.91 10.48C109.67 10.31 111.41 10.15 113.15 10C114.89 9.84002 116.62 9.69002 118.34 9.54002C120.06 9.39002 121.77 9.24002 123.48 9.10002C125.19 8.96002 126.88 8.82002 128.57 8.68002C130.26 8.54002 131.94 8.41002 133.61 8.28002C135.28 8.15002 136.95 8.03002 138.61 7.90002C140.27 7.78002 141.92 7.66002 143.57 7.54002C145.22 7.42002 146.85 7.31002 148.49 7.20002C150.13 7.09002 151.75 6.99002 153.37 6.88002C154.99 6.78002 156.6 6.68002 158.21 6.58002C159.82 6.48002 161.42 6.39002 163.01 6.30002C164.6 6.21002 166.2 6.12002 167.78 6.04002C169.36 5.95002 170.94 5.87002 172.52 5.79002C174.09 5.71002 175.66 5.63002 177.23 5.56002C178.79 5.49002 180.35 5.41002 181.91 5.35002C183.47 5.28002 185.02 5.21002 186.56 5.15002C188.11 5.09002 189.65 5.03002 191.19 4.97002C192.73 4.91002 194.26 4.86002 195.8 4.80002C197.33 4.75002 198.86 4.70002 200.39 4.65002C201.92 4.60002 203.44 4.56002 204.96 4.51002C206.48 4.47002 208 4.43002 209.51 4.39002C211.02 4.35002 212.53 4.31002 214.04 4.28002C215.55 4.25002 217.06 4.21002 218.56 4.18002C220.06 4.15002 221.57 4.12002 223.07 4.10002C224.57 4.08002 226.07 4.05002 227.57 4.03002C229.07 4.01002 230.56 3.99002 232.06 3.98002C233.56 3.96002 235.05 3.95002 236.54 3.94002C238.03 3.93002 239.53 3.92002 241.02 3.91002C242.51 3.90002 244 3.90002 245.5 3.90002C246.99 3.90002 248.48 3.90002 249.98 3.90002C251.47 3.90002 252.96 3.91002 254.46 3.91002C255.95 3.92002 257.45 3.93002 258.94 3.94002C260.43 3.95002 261.93 3.96002 263.42 3.98002C264.92 4.00002 266.41 4.01002 267.91 4.03002C269.41 4.05002 270.91 4.07002 272.41 4.10002C273.91 4.12002 275.41 4.15002 276.92 4.18002C278.42 4.21002 279.93 4.24002 281.44 4.28002C282.95 4.31002 284.46 4.35002 285.97 4.39002C287.48 4.43002 289 4.47002 290.52 4.51002C292.04 4.55002 293.56 4.60002 295.09 4.65002C296.62 4.70002 298.14 4.75002 299.68 4.80002C301.21 4.85002 302.75 4.91002 304.29 4.97002C305.83 5.03002 307.37 5.09002 308.92 5.15002C310.47 5.21002 312.02 5.28002 313.57 5.35002C315.13 5.42002 316.69 5.49002 318.25 5.56002C319.81 5.63002 321.38 5.71002 322.96 5.79002C324.54 5.87002 326.11 5.95002 327.7 6.04002C329.28 6.13002 330.87 6.21002 332.47 6.30002C334.07 6.39002 335.67 6.48002 337.27 6.58002C338.88 6.68002 340.49 6.78002 342.11 6.88002C343.73 6.98002 345.35 7.09002 346.99 7.20002C348.62 7.31002 350.26 7.42002 351.91 7.54002C353.56 7.66002 355.21 7.77002 356.87 7.90002C358.53 8.02002 360.2 8.15002 361.87 8.28002C363.54 8.41002 365.22 8.54002 366.91 8.68002C368.6 8.82002 370.3 8.95002 372 9.10002C373.7 9.24002 375.42 9.39002 377.14 9.54002C378.86 9.69002 380.59 9.84002 382.33 10C384.07 10.16 385.81 10.32 387.57 10.48C389.33 10.65 391.09 10.81 392.86 10.99C394.63 11.17 396.42 11.34 398.21 11.52C400 11.7 401.8 11.89 403.62 12.08C405.43 12.27 407.25 12.46 409.09 12.66C410.92 12.86 412.76 13.06 414.62 13.27C416.47 13.48 418.34 13.69 420.21 13.91C422.08 14.13 423.97 14.35 425.86 14.58C427.76 14.81 429.66 15.04 431.58 15.28C433.5 15.52 435.43 15.76 437.37 16.01C439.31 16.26 441.26 16.51 443.23 16.77C445.19 17.03 447.17 17.29 449.16 17.56C450.55 17.75 451.94 18.08 453.32 18.53C454.7 18.98 456.06 19.56 457.4 20.24C458.73 20.92 460.04 21.71 461.3 22.59C462.56 23.47 463.77 24.44 464.91 25.48C466.06 26.52 467.14 27.64 468.14 28.81C469.14 29.98 470.05 31.22 470.87 32.49C471.68 33.77 472.39 35.08 472.98 36.43C473.57 37.78 474.04 39.15 474.37 40.54C474.83 42.5 475.28 44.45 475.72 46.38C476.16 48.31 476.58 50.23 476.99 52.13C477.4 54.03 477.8 55.91 478.19 57.78C478.58 59.65 478.95 61.5 479.32 63.34C479.69 65.18 480.04 67.01 480.38 68.82C480.72 70.63 481.06 72.43 481.38 74.22C481.7 76.01 482.02 77.78 482.32 79.54C482.62 81.3 482.92 83.05 483.2 84.78C483.48 86.51 483.76 88.24 484.02 89.95C484.29 91.66 484.54 93.36 484.79 95.05C485.04 96.74 485.28 98.41 485.51 100.08C485.74 101.75 485.96 103.4 486.18 105.05C486.4 106.7 486.6 108.33 486.8 109.96C487 111.59 487.19 113.2 487.38 114.81C487.57 116.42 487.74 118.02 487.91 119.61C488.08 121.2 488.24 122.79 488.4 124.36C488.56 125.94 488.71 127.5 488.85 129.07C488.99 130.63 489.13 132.19 489.26 133.73C489.39 135.27 489.51 136.82 489.63 138.35C489.75 139.88 489.86 141.42 489.96 142.94C490.07 144.46 490.16 145.98 490.26 147.5C490.35 149.01 490.44 150.52 490.52 152.03C490.6 153.54 490.68 155.04 490.75 156.53C490.82 158.02 490.89 159.52 490.94 161.01C490.99 162.5 491.05 163.99 491.1 165.47C491.15 166.95 491.19 168.44 491.23 169.92C491.27 171.4 491.3 172.88 491.33 174.36C491.36 175.84 491.38 177.31 491.39 178.79C491.41 180.26 491.42 181.74 491.42 183.21C491.43 184.68 491.43 186.16 491.42 187.63C491.41 189.1 491.4 190.58 491.39 192.05C491.38 193.52 491.35 195 491.33 196.48C491.3 197.96 491.27 199.44 491.23 200.92C491.19 202.4 491.15 203.88 491.1 205.37C491.05 206.85 491 208.34 490.94 209.83C490.88 211.32 490.82 212.81 490.75 214.31C490.68 215.81 490.6 217.31 490.52 218.81C490.44 220.32 490.35 221.82 490.26 223.34C490.17 224.85 490.07 226.37 489.96 227.9C489.85 229.42 489.74 230.95 489.63 232.49C489.51 234.03 489.39 235.57 489.26 237.11C489.13 238.65 488.99 240.21 488.85 241.77C488.71 243.33 488.56 244.9 488.4 246.48C488.24 248.06 488.08 249.64 487.91 251.23C487.74 252.82 487.56 254.42 487.38 256.03C487.2 257.64 487 259.26 486.8 260.88C486.6 262.5 486.39 264.14 486.18 265.79C485.96 267.44 485.74 269.09 485.51 270.76C485.28 272.43 485.04 274.1 484.79 275.79C484.54 277.48 484.29 279.18 484.02 280.89C483.75 282.6 483.48 284.32 483.2 286.06C482.92 287.79 482.62 289.54 482.32 291.3C482.02 293.06 481.7 294.83 481.38 296.62C481.06 298.41 480.72 300.2 480.38 302.02C480.04 303.83 479.68 305.66 479.32 307.5C478.95 309.34 478.58 311.19 478.19 313.06C477.8 314.93 477.4 316.81 476.99 318.71C476.58 320.61 476.15 322.53 475.72 324.46C475.28 326.39 474.83 328.34 474.37 330.3C474.04 331.69 473.57 333.06 472.98 334.41C472.39 335.76 471.68 337.07 470.87 338.35C470.06 339.63 469.14 340.86 468.14 342.03C467.14 343.2 466.06 344.32 464.91 345.36C463.76 346.4 462.55 347.37 461.3 348.25C460.04 349.13 458.74 349.92 457.4 350.6C456.07 351.28 454.7 351.86 453.32 352.31C451.94 352.77 450.55 353.09 449.16 353.28Z" fill="#010101"/>
<path d="M128.2 291.13C130.11 291.21 131.97 291.29 133.78 291.36C135.59 291.43 137.35 291.5 139.08 291.57C140.8 291.64 142.48 291.7 144.13 291.76C145.78 291.82 147.39 291.88 148.97 291.93C150.55 291.98 152.1 292.04 153.63 292.09C155.16 292.14 156.66 292.19 158.15 292.24C159.64 292.29 161.11 292.33 162.56 292.38C164.02 292.42 165.46 292.47 166.9 292.51C168.34 292.55 169.77 292.59 171.21 292.63C172.65 292.67 174.08 292.71 175.52 292.74C176.96 292.78 178.4 292.81 179.86 292.85C181.32 292.89 182.79 292.92 184.27 292.95C185.76 292.98 187.26 293.02 188.79 293.05C190.32 293.08 191.87 293.11 193.45 293.14C195.03 293.17 196.64 293.2 198.29 293.23C199.94 293.26 201.62 293.29 203.34 293.31C205.06 293.34 206.83 293.36 208.64 293.39C210.45 293.42 212.31 293.44 214.22 293.46C214.22 293.43 214.22 293.41 214.22 293.37C214.19 292.05 214.01 290.77 213.69 289.51C213.36 288.26 212.88 287.03 212.25 285.84C211.62 284.65 210.84 283.49 209.9 282.37C208.97 281.24 207.88 280.15 206.64 279.09C205.4 278.03 204.01 277 202.47 276.01C200.93 275.02 199.24 274.06 197.39 273.13C195.54 272.2 193.55 271.31 191.41 270.46C190.38 270.05 189.3 269.64 188.2 269.26C187.09 268.87 185.95 268.49 184.77 268.13C183.59 267.77 182.37 267.41 181.12 267.07C179.87 266.73 178.58 266.4 177.25 266.09C175.92 265.77 174.56 265.47 173.17 265.18C171.77 264.89 170.34 264.61 168.87 264.34C167.4 264.07 165.9 263.82 164.36 263.57C162.82 263.33 161.25 263.09 159.64 262.87C158.03 262.65 156.39 262.44 154.71 262.24C153.03 262.04 151.32 261.86 149.57 261.68C147.82 261.51 146.04 261.34 144.22 261.19C142.4 261.04 140.55 260.9 138.67 260.77C136.78 260.64 134.87 260.52 132.91 260.42C130.96 260.31 128.97 260.22 126.95 260.13C124.93 260.04 122.88 259.97 120.79 259.91C118.71 259.85 116.67 259.8 114.66 259.77C112.65 259.74 110.68 259.73 108.73 259.73C106.79 259.73 104.88 259.75 103.01 259.79C101.14 259.83 99.3 259.88 97.49 259.95C95.69 260.02 93.91 260.1 92.18 260.21C90.44 260.31 88.74 260.43 87.08 260.57C85.42 260.71 83.78 260.86 82.19 261.02C80.6 261.19 79.04 261.37 77.51 261.57C75.98 261.77 74.5 261.99 73.05 262.22C71.6 262.45 70.18 262.7 68.8 262.97C67.42 263.24 66.08 263.52 64.77 263.82C63.46 264.12 62.2 264.44 60.96 264.77C59.73 265.1 58.53 265.45 57.38 265.82C56.22 266.19 55.1 266.57 54.02 266.96C52.94 267.36 51.89 267.77 50.89 268.2C49.02 269 47.29 269.85 45.69 270.76C44.09 271.67 42.63 272.63 41.31 273.64C39.98 274.66 38.79 275.73 37.74 276.85C36.69 277.98 35.77 279.16 34.98 280.41C34.2 281.66 33.55 282.96 33.03 284.33C32.52 285.7 32.14 287.13 31.89 288.62C31.64 290.11 31.53 291.67 31.56 293.29C31.58 294.91 31.74 296.6 32.03 298.36C32.11 298.86 32.15 299.11 32.24 299.61C32.51 301.21 32.87 302.76 33.32 304.27C33.77 305.78 34.31 307.24 34.94 308.65C35.57 310.07 36.29 311.44 37.1 312.77C37.91 314.1 38.81 315.39 39.8 316.64C40.79 317.89 41.86 319.1 43.03 320.26C44.19 321.43 45.45 322.56 46.79 323.65C48.13 324.74 49.56 325.8 51.08 326.82C52.27 327.62 53.49 328.39 54.75 329.12C56.01 329.85 57.29 330.55 58.61 331.22C59.93 331.89 61.28 332.52 62.66 333.12C64.04 333.72 65.45 334.28 66.89 334.81C68.33 335.34 69.8 335.83 71.31 336.29C72.81 336.75 74.35 337.17 75.91 337.55C77.47 337.93 79.07 338.28 80.69 338.59C82.31 338.9 83.96 339.17 85.65 339.41C87.33 339.64 89.04 339.84 90.79 340C92.7 340.17 94.54 340.3 96.31 340.39C98.08 340.48 99.79 340.53 101.42 340.53C103.06 340.54 104.62 340.5 106.12 340.42C107.62 340.34 109.05 340.23 110.41 340.07C111.77 339.91 113.07 339.72 114.29 339.48C115.51 339.24 116.67 338.96 117.75 338.65C118.83 338.33 119.85 337.98 120.79 337.58C122.39 336.91 123.8 336.15 125.01 335.3C126.22 334.45 127.24 333.51 128.07 332.48C128.9 331.45 129.54 330.32 129.98 329.1C130.43 327.88 130.69 326.56 130.76 325.15C130.79 324.61 130.8 324.34 130.83 323.79C131.96 323.85 132.82 323.9 133.67 323.95C134.52 324 135.37 324.04 136.51 324.11C136.85 325.86 137.15 327.4 137.42 328.82C137.7 330.25 137.96 331.56 138.21 332.88C138.47 334.2 138.73 335.51 139.01 336.94C139.29 338.37 139.6 339.9 139.95 341.66C141.84 341.78 143.67 341.88 145.45 341.99C147.23 342.1 148.96 342.19 150.64 342.28C152.32 342.37 153.96 342.46 155.56 342.54C157.16 342.62 158.73 342.7 160.26 342.78C161.79 342.86 163.3 342.93 164.79 343C166.27 343.07 167.74 343.14 169.18 343.2C170.63 343.26 172.06 343.33 173.48 343.39C174.9 343.45 176.32 343.51 177.74 343.56C179.16 343.62 180.57 343.67 182 343.72C183.42 343.77 184.86 343.82 186.3 343.87C187.75 343.92 189.21 343.97 190.69 344.02C192.17 344.07 193.68 344.11 195.22 344.16C196.76 344.21 198.32 344.25 199.92 344.29C201.52 344.33 203.16 344.38 204.84 344.42C206.52 344.46 208.25 344.5 210.03 344.54C211.81 344.58 213.64 344.61 215.53 344.65C215.47 342.7 215.41 340.86 215.36 339.1C215.31 337.34 215.26 335.67 215.21 334.05C215.16 332.44 215.12 330.88 215.08 329.37C215.04 327.86 215 326.37 214.96 324.9C214.92 323.43 214.88 321.97 214.84 320.5C214.8 319.03 214.76 317.55 214.73 316.03C214.69 314.51 214.65 312.96 214.61 311.35C214.57 309.74 214.53 308.06 214.49 306.3C214.45 304.54 214.41 302.7 214.36 300.75C212.41 300.73 210.52 300.7 208.68 300.68C206.84 300.65 205.04 300.63 203.29 300.6C201.54 300.57 199.83 300.54 198.15 300.51C196.47 300.48 194.84 300.45 193.23 300.42C191.62 300.39 190.04 300.36 188.49 300.32C186.93 300.29 185.4 300.25 183.89 300.22C182.38 300.18 180.88 300.15 179.4 300.11C177.92 300.07 176.45 300.03 174.98 300C173.51 299.96 172.06 299.92 170.6 299.88C169.14 299.84 167.68 299.8 166.22 299.75C164.75 299.71 163.28 299.66 161.8 299.61C160.32 299.56 158.82 299.51 157.31 299.46C155.8 299.41 154.27 299.36 152.71 299.3C151.15 299.25 149.58 299.19 147.97 299.13C146.36 299.07 144.72 299.01 143.05 298.94C141.37 298.87 139.66 298.81 137.91 298.73C136.16 298.66 134.36 298.58 132.52 298.5C130.68 298.42 128.79 298.34 126.84 298.25C126.98 299.97 127.09 301.26 127.2 302.55C127.31 303.84 127.42 305.13 127.57 306.85C129.01 306.92 129.73 306.96 131.17 307.03C131.25 308 131.3 308.49 131.38 309.46C131.49 310.42 131.24 311.3 130.64 311.96C130.15 312.5 129.46 312.88 128.53 313.11C127.6 313.34 126.44 313.41 125.01 313.33C122.18 313.18 120.47 312.31 119.45 311.26C118.43 310.21 118.1 308.96 118.01 308.04C117.86 306.48 117.73 305.11 117.61 303.84C117.49 302.57 117.38 301.4 117.28 300.23C117.18 299.06 117.07 297.89 116.96 296.62C116.85 295.35 116.73 293.98 116.6 292.42C116.54 291.51 116.68 290.31 117.52 289.37C118.36 288.43 119.91 287.75 122.67 287.87C124.67 287.96 125.98 288.43 126.83 289.05C127.64 289.67 128.03 290.44 128.2 291.13Z" fill="#F8E700"/>
<path d="M223.59 263.66C223.61 265.57 223.63 267.42 223.65 269.23C223.67 271.03 223.69 272.79 223.71 274.5C223.73 276.21 223.75 277.88 223.77 279.51C223.79 281.14 223.81 282.74 223.83 284.3C223.85 285.87 223.87 287.4 223.89 288.91C223.91 290.42 223.93 291.91 223.95 293.39C223.97 294.86 223.99 296.32 224.02 297.77C224.04 299.22 224.06 300.65 224.09 302.09C224.11 303.52 224.14 304.95 224.16 306.39C224.18 307.82 224.21 309.26 224.23 310.71C224.25 312.16 224.28 313.61 224.31 315.09C224.34 316.57 224.36 318.05 224.39 319.57C224.42 321.08 224.45 322.62 224.48 324.18C224.51 325.75 224.54 327.34 224.57 328.97C224.6 330.6 224.64 332.27 224.67 333.98C224.7 335.69 224.74 337.44 224.78 339.25C224.82 341.06 224.86 342.91 224.9 344.82C226.88 344.85 228.8 344.87 230.68 344.89C232.56 344.91 234.38 344.92 236.16 344.93C237.94 344.94 239.68 344.95 241.39 344.96C243.1 344.97 244.76 344.97 246.4 344.97C248.04 344.97 249.64 344.97 251.22 344.97C252.8 344.97 254.36 344.96 255.9 344.95C257.44 344.94 258.96 344.93 260.47 344.92C261.98 344.91 263.47 344.9 264.96 344.88C266.45 344.87 267.93 344.85 269.42 344.83C270.91 344.81 272.39 344.79 273.88 344.77C275.37 344.75 276.87 344.72 278.37 344.7C279.88 344.67 281.4 344.65 282.94 344.62C284.48 344.59 286.04 344.56 287.62 344.52C289.2 344.48 290.81 344.45 292.44 344.4C294.08 344.36 295.74 344.31 297.45 344.27C299.16 344.23 300.89 344.17 302.68 344.12C304.46 344.06 306.29 344.01 308.16 343.94C310.03 343.88 311.96 343.81 313.94 343.73C314.06 341.83 314.17 339.99 314.28 338.2C314.39 336.41 314.49 334.67 314.59 332.97C314.69 331.27 314.79 329.61 314.88 327.99C314.97 326.37 315.06 324.79 315.15 323.23C315.24 321.68 315.32 320.15 315.4 318.65C315.48 317.15 315.56 315.67 315.63 314.21C315.71 312.75 315.78 311.3 315.85 309.86C315.92 308.42 315.99 307 316.06 305.57C316.13 304.15 316.2 302.73 316.26 301.3C316.32 299.87 316.39 298.45 316.45 297.01C316.51 295.57 316.58 294.13 316.64 292.66C316.7 291.2 316.76 289.72 316.83 288.22C316.89 286.72 316.95 285.19 317.01 283.64C317.07 282.09 317.13 280.5 317.19 278.88C317.25 277.26 317.31 275.6 317.37 273.9C317.43 272.2 317.49 270.46 317.55 268.67C317.61 266.88 317.67 265.04 317.73 263.14C315.75 263.17 313.82 263.21 311.94 263.24C310.06 263.27 308.22 263.3 306.43 263.32C304.64 263.35 302.88 263.37 301.16 263.39C299.44 263.41 297.76 263.43 296.11 263.45C294.46 263.47 292.84 263.49 291.24 263.51C289.64 263.53 288.07 263.54 286.52 263.56C284.97 263.57 283.43 263.59 281.91 263.6C280.39 263.61 278.88 263.62 277.38 263.64C275.88 263.65 274.39 263.66 272.9 263.67C271.41 263.68 269.93 263.69 268.44 263.7C266.95 263.71 265.46 263.71 263.96 263.72C262.46 263.73 260.95 263.73 259.43 263.74C257.91 263.74 256.38 263.75 254.82 263.75C253.27 263.75 251.69 263.75 250.1 263.76C248.5 263.76 246.88 263.76 245.23 263.76C243.58 263.76 241.9 263.76 240.18 263.75C238.46 263.75 236.71 263.74 234.91 263.74C233.12 263.73 231.28 263.73 229.4 263.72C227.5 263.68 225.57 263.67 223.59 263.66Z" fill="#F8E700"/>
<path d="M460.77 291.37C458.82 291.53 456.98 291.67 455.21 291.81C453.44 291.95 451.75 292.08 450.11 292.2C448.48 292.32 446.9 292.44 445.36 292.56C443.82 292.67 442.32 292.79 440.85 292.89C439.37 293 437.91 293.1 436.45 293.21C434.99 293.31 433.53 293.42 432.05 293.52C430.57 293.62 429.07 293.73 427.54 293.83C426 293.93 424.43 294.04 422.79 294.15C421.16 294.26 419.46 294.37 417.69 294.48C415.92 294.59 414.07 294.71 412.13 294.83C412.29 293.39 412.43 292.18 412.55 291.06C412.67 289.94 412.78 288.89 412.9 287.77C413.02 286.65 413.14 285.44 413.29 284C415.21 283.89 417.05 283.79 418.81 283.69C420.57 283.59 422.27 283.49 423.9 283.39C425.54 283.29 427.12 283.2 428.66 283.11C430.2 283.02 431.7 282.92 433.18 282.83C434.66 282.74 436.11 282.65 437.56 282.55C439.01 282.46 440.44 282.37 441.89 282.27C443.34 282.18 444.79 282.08 446.27 281.98C447.75 281.88 449.25 281.78 450.79 281.68C452.33 281.58 453.91 281.47 455.55 281.35C457.19 281.24 458.88 281.12 460.64 280.99C462.4 280.86 464.24 280.73 466.16 280.59C466.41 278.75 466.64 277.1 466.84 275.56C467.04 274.02 467.23 272.59 467.4 271.19C467.57 269.8 467.74 268.44 467.91 267.04C468.08 265.65 468.24 264.21 468.42 262.67C468.6 261.13 468.78 259.48 468.97 257.64C466.99 257.75 465.04 257.85 463.13 257.96C461.21 258.06 459.33 258.16 457.48 258.26C455.63 258.36 453.8 258.45 452 258.54C450.2 258.63 448.43 258.72 446.69 258.81C444.94 258.9 443.22 258.98 441.53 259.06C439.83 259.14 438.16 259.22 436.5 259.3C434.84 259.38 433.21 259.45 431.59 259.53C429.97 259.6 428.37 259.68 426.79 259.75C425.2 259.82 423.63 259.89 422.08 259.96C420.52 260.03 418.98 260.09 417.45 260.16C415.92 260.22 414.39 260.29 412.88 260.35C411.37 260.41 409.86 260.47 408.36 260.53C406.86 260.59 405.36 260.65 403.87 260.71C402.38 260.77 400.89 260.82 399.4 260.88C397.91 260.94 396.43 260.99 394.94 261.05C393.45 261.1 391.97 261.16 390.47 261.21C388.98 261.26 387.48 261.31 385.98 261.37C384.48 261.43 382.97 261.47 381.46 261.52C379.95 261.57 378.42 261.62 376.89 261.67C375.36 261.72 373.81 261.77 372.26 261.82C370.7 261.87 369.13 261.92 367.55 261.96C365.96 262.01 364.36 262.05 362.75 262.1C361.13 262.15 359.5 262.19 357.84 262.24C356.18 262.29 354.51 262.33 352.81 262.37C351.11 262.41 349.39 262.46 347.65 262.5C345.9 262.54 344.13 262.59 342.34 262.63C340.54 262.67 338.72 262.71 336.86 262.75C335 262.79 333.12 262.83 331.21 262.87C329.3 262.91 327.35 262.95 325.37 262.99C325.3 264.88 325.24 266.72 325.17 268.51C325.1 270.3 325.04 272.04 324.97 273.73C324.9 275.43 324.84 277.08 324.77 278.7C324.7 280.32 324.64 281.9 324.57 283.45C324.5 285 324.43 286.53 324.37 288.02C324.3 289.52 324.23 291 324.16 292.46C324.09 293.92 324.02 295.36 323.95 296.8C323.88 298.23 323.81 299.66 323.73 301.08C323.66 302.5 323.58 303.92 323.51 305.34C323.43 306.76 323.36 308.19 323.28 309.62C323.2 311.05 323.12 312.5 323.04 313.96C322.96 315.42 322.87 316.9 322.78 318.4C322.69 319.9 322.6 321.42 322.51 322.97C322.42 324.52 322.32 326.1 322.21 327.72C322.11 329.34 322 330.99 321.89 332.69C321.78 334.39 321.66 336.13 321.54 337.91C321.42 339.69 321.29 341.54 321.16 343.43C323.05 343.36 324.89 343.29 326.69 343.21C328.48 343.14 330.23 343.06 331.94 342.99C333.65 342.92 335.31 342.84 336.94 342.77C338.57 342.7 340.16 342.62 341.73 342.54C343.3 342.46 344.83 342.39 346.34 342.31C347.85 342.23 349.34 342.15 350.81 342.07C352.28 341.99 353.74 341.91 355.18 341.83C356.62 341.75 358.05 341.67 359.48 341.58C360.91 341.5 362.32 341.41 363.74 341.32C365.16 341.23 366.58 341.14 368 341.05C369.43 340.96 370.86 340.87 372.3 340.77C373.74 340.67 375.2 340.58 376.67 340.47C378.14 340.36 379.63 340.26 381.14 340.16C382.65 340.05 384.19 339.94 385.75 339.82C387.31 339.7 388.91 339.58 390.54 339.46C392.17 339.33 393.83 339.2 395.54 339.07C397.25 338.94 398.99 338.79 400.78 338.64C402.57 338.49 404.41 338.34 406.3 338.17C406.58 336.37 406.84 334.71 407.08 333.13C407.32 331.55 407.54 330.07 407.75 328.64C407.96 327.21 408.16 325.84 408.36 324.48C408.55 323.12 408.74 321.79 408.93 320.43C409.12 319.07 409.31 317.7 409.5 316.27C409.69 314.84 409.89 313.36 410.1 311.78C410.31 310.2 410.52 308.54 410.74 306.74C412.67 306.61 414.5 306.48 416.26 306.35C418.02 306.22 419.69 306.1 421.31 305.98C422.93 305.86 424.49 305.74 426.02 305.63C427.55 305.52 429.03 305.4 430.49 305.29C431.96 305.18 433.4 305.06 434.85 304.95C436.3 304.83 437.74 304.72 439.21 304.6C440.68 304.48 442.16 304.36 443.68 304.23C445.2 304.1 446.77 303.97 448.39 303.83C450.01 303.69 451.69 303.55 453.44 303.39C455.2 303.24 457.03 303.07 458.96 302.9C459.22 301.36 459.43 300.08 459.62 298.89C459.81 297.69 459.99 296.58 460.18 295.39C460.34 294.19 460.54 292.91 460.77 291.37Z" fill="#F8E700"/>
<path d="M69.2 255.79C70.79 255.86 72.33 255.83 73.82 255.72C75.31 255.6 76.75 255.4 78.13 255.1C79.51 254.8 80.85 254.41 82.14 253.93C83.43 253.45 84.67 252.87 85.86 252.2C87.05 251.53 88.2 250.76 89.3 249.9C90.4 249.04 91.46 248.08 92.47 247.03C93.48 245.98 94.45 244.83 95.38 243.59C96.31 242.35 97.19 241.01 98.04 239.58C98.89 238.15 99.69 236.61 100.46 234.99C101 233.85 101.51 232.67 102.01 231.46C102.5 230.25 102.98 228.99 103.43 227.71C103.88 226.42 104.31 225.1 104.72 223.73C105.13 222.37 105.52 220.97 105.89 219.54C106.26 218.11 106.61 216.64 106.93 215.13C107.26 213.62 107.56 212.08 107.85 210.5C108.14 208.92 108.4 207.31 108.65 205.66C108.9 204.01 109.12 202.33 109.33 200.61C109.54 198.89 109.73 197.14 109.9 195.35C110.07 193.56 110.22 191.74 110.35 189.89C110.48 188.04 110.59 186.15 110.69 184.23C110.78 182.31 110.86 180.35 110.92 178.37C110.98 176.38 111.02 174.36 111.04 172.31C111.05 171.39 111.05 170.93 111.07 170.02C111.1 167.88 111.11 165.79 111.11 163.76C111.11 161.73 111.09 159.76 111.05 157.84C111.02 155.92 110.97 154.07 110.9 152.26C110.83 150.45 110.75 148.72 110.65 147.03C110.55 145.35 110.43 143.72 110.3 142.15C110.16 140.58 110.01 139.07 109.84 137.62C109.67 136.17 109.48 134.78 109.27 133.45C109.06 132.12 108.83 130.85 108.59 129.64C108.34 128.43 108.08 127.28 107.79 126.19C107.5 125.1 107.2 124.07 106.87 123.1C106.54 122.13 106.2 121.22 105.83 120.37C105.17 118.85 104.46 117.46 103.67 116.19C102.89 114.92 102.04 113.78 101.12 112.76C100.2 111.74 99.22 110.84 98.16 110.07C97.1 109.3 95.97 108.64 94.77 108.11C93.57 107.58 92.29 107.17 90.94 106.88C89.59 106.59 88.16 106.42 86.65 106.36C84.69 106.29 83.06 106.24 81.53 106.19C80.01 106.14 78.59 106.09 77.07 106.05C75.55 106.01 73.91 105.95 71.96 105.9C70.83 105.86 69.87 105.68 69.1 105.38C68.33 105.08 67.73 104.63 67.31 104.07C66.92 103.53 66.66 102.84 66.53 101.96C66.4 101.08 66.4 100.02 66.53 98.73C66.54 98.64 66.54 98.6 66.55 98.51C66.74 96.55 67.18 95.01 67.88 93.79C69.02 91.79 70.43 91.31 71.4 91.25C73.24 91.15 74.1 92.33 74.49 93.86C74.88 95.39 74.78 97.27 74.68 98.55C76.57 98.45 78.34 98.37 80.03 98.28C81.71 98.2 83.31 98.12 84.84 98.05C86.37 97.98 87.85 97.91 89.3 97.84C90.75 97.77 92.17 97.71 93.58 97.64C95 97.58 96.42 97.51 97.86 97.45C99.31 97.39 100.78 97.32 102.32 97.26C103.86 97.19 105.45 97.13 107.13 97.06C108.81 96.99 110.59 96.92 112.48 96.84C112.51 96.37 112.53 96.14 112.56 95.67C112.7 93.71 112.82 91.8 112.9 89.92C112.98 88.04 113.04 86.21 113.06 84.42C113.09 82.63 113.08 80.87 113.05 79.16C113.02 77.45 112.95 75.78 112.86 74.15C112.77 72.52 112.64 70.94 112.49 69.4C112.34 67.86 112.15 66.36 111.94 64.91C111.73 63.46 111.48 62.04 111.21 60.68C110.94 59.31 110.63 57.99 110.3 56.71C109.97 55.43 109.6 54.2 109.21 53.01C108.82 51.82 108.39 50.68 107.94 49.58C107.49 48.48 107 47.43 106.48 46.42C105.67 44.85 104.8 43.4 103.87 42.09C102.94 40.77 101.93 39.58 100.87 38.52C99.8 37.46 98.66 36.52 97.45 35.71C96.24 34.9 94.96 34.21 93.6 33.65C92.24 33.09 90.81 32.65 89.3 32.34C87.79 32.03 86.2 31.84 84.54 31.77C82.88 31.7 81.12 31.76 79.29 31.94C77.78 32.09 76.31 32.3 74.87 32.59C73.43 32.88 72.02 33.23 70.64 33.65C69.26 34.07 67.91 34.57 66.59 35.13C65.27 35.69 63.97 36.32 62.71 37.02C61.44 37.72 60.2 38.49 58.99 39.33C57.78 40.17 56.59 41.07 55.43 42.05C54.27 43.03 53.14 44.07 52.03 45.18C50.92 46.29 49.84 47.47 48.79 48.72C47.74 49.97 46.71 51.29 45.7 52.68C45 53.65 44.31 54.66 43.64 55.71C42.97 56.76 42.3 57.85 41.66 58.98C41.01 60.11 40.38 61.28 39.76 62.48C39.14 63.69 38.54 64.93 37.95 66.22C37.36 67.5 36.79 68.83 36.24 70.19C35.69 71.55 35.15 72.95 34.63 74.39C34.11 75.83 33.61 77.3 33.12 78.82C32.64 80.33 32.17 81.89 31.73 83.48C31.29 85.07 30.86 86.7 30.46 88.36C30.06 90.03 29.67 91.73 29.31 93.47C28.95 95.21 28.61 96.99 28.3 98.81C27.98 100.63 27.69 102.48 27.43 104.38C27.16 106.27 26.92 108.2 26.7 110.17C26.67 110.43 26.66 110.56 26.63 110.82C26.4 112.97 26.2 115.07 26.04 117.11C25.88 119.15 25.76 121.13 25.68 123.06C25.6 124.99 25.55 126.85 25.54 128.66C25.53 130.47 25.56 132.22 25.62 133.92C25.68 135.62 25.78 137.25 25.9 138.83C26.03 140.41 26.19 141.93 26.38 143.4C26.57 144.86 26.8 146.27 27.05 147.62C27.31 148.97 27.59 150.26 27.91 151.48C28.23 152.71 28.57 153.88 28.95 154.99C29.32 156.1 29.73 157.15 30.16 158.14C30.86 159.75 31.66 161.23 32.57 162.59C33.47 163.94 34.48 165.16 35.59 166.26C36.7 167.36 37.91 168.32 39.22 169.16C40.53 170 41.95 170.71 43.46 171.3C44.98 171.88 46.6 172.34 48.32 172.67C50.04 173 51.87 173.21 53.8 173.29C55.43 173.37 56.79 173.43 58.07 173.49C59.34 173.55 60.52 173.61 61.79 173.67C63.06 173.73 64.42 173.8 66.06 173.87C67.01 173.87 67.82 174.15 68.46 174.74C69.1 175.33 69.58 176.21 69.9 177.39C70.22 178.57 70.38 180.04 70.37 181.79C70.37 181.88 70.37 181.93 70.37 182.02C70.36 183.87 70.16 185.51 69.76 186.87C68.99 189.47 67.38 189.86 66.49 189.85C65.73 189.85 65.06 189.57 64.5 189.02C63.94 188.47 63.49 187.64 63.14 186.55C62.91 185.8 62.73 184.98 62.6 184.07C62.48 183.16 62.41 182.18 62.4 181.12C60.42 181.13 58.56 181.13 56.79 181.13C55.02 181.13 53.35 181.14 51.74 181.14C50.13 181.14 48.58 181.15 47.06 181.15C45.54 181.15 44.05 181.16 42.57 181.16C41.09 181.16 39.59 181.17 38.08 181.17C36.56 181.17 35.01 181.18 33.4 181.18C31.79 181.18 30.11 181.19 28.35 181.2C26.59 181.21 24.72 181.21 22.74 181.22C22.73 182.32 22.73 182.87 22.73 183.96C22.73 185.99 22.76 187.98 22.84 189.93C22.92 191.88 23.04 193.79 23.2 195.66C23.36 197.53 23.56 199.36 23.8 201.15C24.04 202.94 24.31 204.69 24.63 206.4C24.94 208.11 25.29 209.78 25.68 211.41C26.07 213.04 26.49 214.63 26.95 216.18C27.41 217.73 27.9 219.24 28.43 220.7C28.96 222.17 29.52 223.59 30.12 224.98C30.72 226.37 31.34 227.71 32 229.01C32.66 230.31 33.35 231.58 34.08 232.8C34.8 234.02 35.56 235.2 36.35 236.34C37.42 237.89 38.53 239.35 39.68 240.72C40.83 242.09 42.01 243.36 43.23 244.54C44.45 245.72 45.71 246.81 47 247.8C48.29 248.8 49.62 249.7 50.99 250.51C52.36 251.32 53.76 252.04 55.2 252.67C56.64 253.3 58.12 253.83 59.64 254.27C61.16 254.71 62.72 255.06 64.32 255.32C65.88 255.56 67.52 255.72 69.2 255.79Z" fill="#F8E700"/>
<path d="M207.67 25.4799C207.55 27.4599 207.43 29.3899 207.32 31.2699C207.21 33.1499 207.1 34.9799 207 36.7599C206.9 38.5399 206.79 40.2899 206.7 41.9999C206.61 43.7099 206.51 45.3799 206.41 47.0199C206.31 48.6599 206.23 50.2699 206.14 51.8499C206.05 53.4299 205.97 54.9899 205.88 56.5399C205.8 58.0799 205.71 59.5999 205.63 61.1199C205.55 62.6299 205.47 64.1299 205.39 65.6199C205.31 67.1099 205.23 68.5999 205.16 70.0899C205.08 71.5799 205.01 73.0599 204.93 74.5499C204.85 76.0399 204.78 77.5399 204.7 79.0499C204.62 80.5599 204.55 82.0799 204.48 83.6199C204.41 85.1599 204.33 86.7199 204.25 88.2999C204.17 89.8799 204.1 91.4899 204.02 93.1299C203.94 94.7699 203.87 96.4399 203.79 98.1399C203.71 99.8499 203.63 101.59 203.56 103.37C203.49 105.15 203.4 106.98 203.32 108.86C203.24 110.74 203.16 112.66 203.08 114.64C202.97 116.36 202.87 117.91 202.77 119.35C202.68 120.79 202.59 122.14 202.51 123.44C202.43 124.74 202.35 126.02 202.26 127.33C202.18 128.64 202.09 129.98 202 131.42C201.91 132.86 201.82 134.41 201.71 136.13C201.66 136.89 201.04 137.48 200.28 137.49C199.53 137.5 198.91 136.91 198.89 136.15C198.83 134.43 198.78 132.88 198.73 131.44C198.68 130 198.64 128.65 198.6 127.35C198.56 126.04 198.52 124.77 198.48 123.46C198.44 122.15 198.4 120.81 198.36 119.37C198.32 117.93 198.27 116.38 198.22 114.66C198.21 112.68 198.19 110.76 198.18 108.89C198.17 107.02 198.16 105.19 198.16 103.41C198.15 101.63 198.15 99.8899 198.15 98.1899C198.15 96.4899 198.14 94.8199 198.14 93.1899C198.14 91.5499 198.14 89.9499 198.14 88.3699C198.14 86.7899 198.14 85.2299 198.15 83.6999C198.16 82.1699 198.16 80.6399 198.16 79.1399C198.17 77.6299 198.17 76.1399 198.18 74.6499C198.19 73.1599 198.2 71.6799 198.21 70.1999C198.22 68.7199 198.23 67.2299 198.24 65.7499C198.25 64.2699 198.27 62.7699 198.28 61.2599C198.29 59.7499 198.31 58.2299 198.33 56.6999C198.35 55.1599 198.37 53.6099 198.39 52.0299C198.41 50.4499 198.43 48.8499 198.46 47.2099C198.48 45.5799 198.51 43.9099 198.54 42.2099C198.57 40.5099 198.6 38.7699 198.63 36.9899C198.66 35.2099 198.7 33.3799 198.73 31.5099C198.77 29.6399 198.81 27.7199 198.85 25.7399C196.93 25.7899 195.18 25.8499 193.52 25.8999C191.87 25.9499 190.32 25.9999 188.83 26.0499C187.34 26.0999 185.9 26.1499 184.46 26.1999C183.02 26.2499 181.58 26.3099 180.09 26.3599C178.6 26.4199 177.05 26.4799 175.4 26.5499C173.75 26.6199 171.99 26.6899 170.07 26.7799C169.87 28.7499 169.67 30.6599 169.49 32.5299C169.3 34.3899 169.12 36.2099 168.95 37.9799C168.78 39.7499 168.61 41.4799 168.45 43.1799C168.29 44.8699 168.13 46.5299 167.98 48.1599C167.83 49.7899 167.68 51.3799 167.54 52.9599C167.4 54.5299 167.26 56.0799 167.12 57.6099C166.98 59.1399 166.85 60.6499 166.72 62.1499C166.59 63.6499 166.46 65.1399 166.33 66.6199C166.2 68.0999 166.08 69.5799 165.95 71.0499C165.83 72.5299 165.7 73.9999 165.58 75.4799C165.46 76.9599 165.34 78.4499 165.22 79.9499C165.1 81.4499 164.98 82.9599 164.86 84.4899C164.74 86.0199 164.62 87.5699 164.5 89.1399C164.38 90.7099 164.26 92.3099 164.14 93.9299C164.02 95.5599 163.9 97.2099 163.78 98.9099C163.66 100.6 163.54 102.33 163.42 104.1C163.3 105.87 163.18 107.69 163.05 109.55C162.92 111.41 162.8 113.32 162.68 115.29C162.54 117 162.42 118.53 162.3 119.96C162.18 121.39 162.08 122.72 161.98 124.02C161.88 125.32 161.78 126.58 161.68 127.87C161.58 129.17 161.48 130.5 161.37 131.93C161.26 133.36 161.15 134.9 161.03 136.6C160.98 137.35 160.34 137.95 159.59 137.96C158.84 137.97 158.23 137.39 158.21 136.64C158.17 134.94 158.14 133.4 158.11 131.97C158.08 130.54 158.05 129.21 158.03 127.91C158.01 126.61 157.98 125.35 157.96 124.06C157.94 122.77 157.92 121.44 157.9 120C157.88 118.57 157.86 117.04 157.84 115.33C157.85 113.37 157.87 111.47 157.88 109.61C157.89 107.75 157.92 105.95 157.94 104.18C157.96 102.41 157.99 100.69 158.01 98.9999C158.03 97.3099 158.06 95.6599 158.09 94.0399C158.12 92.4199 158.15 90.8299 158.18 89.2599C158.21 87.6899 158.25 86.1499 158.28 84.6299C158.32 83.1099 158.35 81.5999 158.39 80.1099C158.43 78.6199 158.47 77.1399 158.51 75.6599C158.55 74.1899 158.59 72.7199 158.64 71.2499C158.68 69.7799 158.73 68.3099 158.78 66.8399C158.83 65.3699 158.88 63.8899 158.93 62.3899C158.98 60.8999 159.04 59.3899 159.1 57.8699C159.16 56.3499 159.22 54.8099 159.28 53.2399C159.34 51.6699 159.41 50.0899 159.48 48.4699C159.55 46.8499 159.62 45.1999 159.7 43.5199C159.78 41.8399 159.86 40.1099 159.95 38.3499C160.04 36.5899 160.13 34.7799 160.23 32.9299C160.33 31.0799 160.43 29.1699 160.54 27.2199C158.69 27.3099 156.96 27.3999 155.31 27.4899C153.66 27.5799 152.11 27.6599 150.6 27.7399C149.1 27.8199 147.66 27.8999 146.24 27.9899C144.83 28.0699 143.44 28.1499 142.05 28.2399C140.66 28.3199 139.28 28.4099 137.86 28.4999C136.45 28.5899 135 28.6799 133.5 28.7799C132 28.8799 130.44 28.9799 128.79 29.0899C127.14 29.1999 125.41 29.3199 123.56 29.4499C123.44 31.4199 123.32 33.3799 123.2 35.3099C123.09 37.2399 122.98 39.1499 122.88 41.0499C122.78 42.9399 122.69 44.8099 122.6 46.6699C122.51 48.5199 122.43 50.3599 122.35 52.1799C122.27 53.9999 122.2 55.7999 122.13 57.5799C122.06 59.3599 122 61.1299 121.94 62.8799C121.88 64.6299 121.83 66.3599 121.78 68.0799C121.73 69.7999 121.68 71.4999 121.64 73.1899C121.6 74.8799 121.56 76.5599 121.53 78.2199C121.5 79.8799 121.47 81.5299 121.44 83.1699C121.41 84.8099 121.39 86.4299 121.37 88.0499C121.35 89.6699 121.33 91.2699 121.32 92.8599C121.31 94.4499 121.3 96.0399 121.29 97.6099C121.28 99.1799 121.28 100.75 121.28 102.31C121.28 103.87 121.28 105.42 121.29 106.96C121.29 108.5 121.3 110.04 121.31 111.57C121.32 113.1 121.33 114.62 121.35 116.14C121.37 117.66 121.38 119.17 121.41 120.68C121.43 122.19 121.46 123.69 121.48 125.19C121.51 126.69 121.54 128.19 121.57 129.68C121.6 131.17 121.64 132.67 121.67 134.16C121.71 135.65 121.75 137.14 121.79 138.63C121.83 140.12 121.88 141.61 121.92 143.1C121.97 144.59 122.02 146.08 122.07 147.57C122.12 149.06 122.18 150.56 122.23 152.05C122.29 153.55 122.35 155.05 122.41 156.55C122.47 158.05 122.54 159.56 122.61 161.07C122.68 162.58 122.75 164.1 122.82 165.62C122.89 167.14 122.97 168.67 123.05 170.2C123.13 171.73 123.21 173.27 123.3 174.82C123.39 176.37 123.47 177.92 123.57 179.49C123.66 181.05 123.76 182.63 123.85 184.21C123.95 185.79 124.05 187.38 124.15 188.99C124.25 190.6 124.36 192.2 124.47 193.83C124.58 195.45 124.7 197.09 124.82 198.74C124.94 200.39 125.06 202.05 125.19 203.72C125.32 205.39 125.45 207.08 125.58 208.78C125.71 210.48 125.85 212.2 126 213.93C126.14 215.66 126.29 217.41 126.44 219.17C126.59 220.93 126.75 222.71 126.91 224.51C127.07 226.31 127.24 228.12 127.41 229.96C127.58 231.79 127.76 233.65 127.94 235.52C128.12 237.39 128.31 239.28 128.5 241.19C128.69 243.1 128.89 245.03 129.1 246.99C129.3 248.94 129.51 250.92 129.73 252.92C131.55 252.97 133.29 253.01 134.95 253.05C136.61 253.09 138.2 253.13 139.73 253.16C141.26 253.2 142.74 253.23 144.18 253.26C145.62 253.29 147.02 253.32 148.41 253.35C149.8 253.38 151.16 253.41 152.53 253.44C153.9 253.47 155.27 253.5 156.65 253.52C158.04 253.55 159.44 253.57 160.88 253.6C162.32 253.63 163.8 253.65 165.33 253.68C166.86 253.71 168.45 253.73 170.11 253.76C171.77 253.79 173.5 253.82 175.33 253.84C175.32 251.9 175.32 250.01 175.32 248.16C175.32 246.31 175.32 244.51 175.32 242.74C175.32 240.97 175.33 239.25 175.33 237.56C175.33 235.87 175.34 234.21 175.35 232.58C175.36 230.95 175.37 229.35 175.38 227.77C175.39 226.19 175.41 224.64 175.42 223.11C175.44 221.58 175.45 220.06 175.47 218.56C175.49 217.06 175.51 215.58 175.53 214.1C175.55 212.62 175.57 211.16 175.59 209.7C175.61 208.24 175.64 206.78 175.66 205.33C175.69 203.87 175.71 202.42 175.74 200.96C175.77 199.5 175.8 198.03 175.83 196.56C175.86 195.08 175.89 193.6 175.93 192.1C175.97 190.6 176 189.09 176.04 187.55C176.08 186.02 176.12 184.46 176.16 182.89C176.2 181.31 176.25 179.71 176.29 178.08C176.34 176.45 176.38 174.79 176.44 173.1C176.49 171.41 176.55 169.68 176.6 167.91C176.66 166.14 176.72 164.34 176.78 162.49C176.84 160.64 176.91 158.75 176.98 156.81C177.05 154.88 177.13 153.06 177.2 151.34C177.27 149.62 177.34 147.98 177.41 146.41C177.48 144.84 177.54 143.33 177.61 141.84C177.68 140.36 177.74 138.91 177.81 137.46C177.88 136.01 177.94 134.56 178.02 133.08C178.09 131.6 178.16 130.09 178.24 128.51C178.32 126.94 178.4 125.3 178.49 123.58C178.58 121.86 178.67 120.04 178.78 118.11C178.83 117.36 179.46 116.76 180.2 116.74C180.95 116.73 181.55 117.31 181.55 118.07C181.55 120.01 181.56 121.82 181.56 123.55C181.57 125.28 181.57 126.91 181.58 128.48C181.59 130.05 181.6 131.57 181.61 133.05C181.62 134.53 181.63 135.99 181.65 137.44C181.67 138.89 181.68 140.35 181.69 141.83C181.71 143.31 181.72 144.83 181.74 146.4C181.76 147.97 181.78 149.61 181.81 151.34C181.84 153.07 181.86 154.88 181.9 156.82C181.93 158.76 181.97 160.66 182.01 162.51C182.05 164.36 182.09 166.17 182.12 167.93C182.16 169.7 182.2 171.43 182.24 173.12C182.28 174.82 182.32 176.48 182.36 178.11C182.4 179.74 182.45 181.34 182.49 182.92C182.53 184.5 182.58 186.05 182.62 187.59C182.66 189.13 182.71 190.64 182.76 192.14C182.81 193.64 182.85 195.13 182.9 196.6C182.95 198.08 183 199.54 183.05 201.01C183.1 202.47 183.15 203.93 183.2 205.39C183.25 206.85 183.31 208.31 183.36 209.77C183.41 211.23 183.47 212.7 183.53 214.18C183.59 215.66 183.65 217.14 183.71 218.65C183.77 220.15 183.83 221.67 183.9 223.2C183.96 224.74 184.03 226.29 184.1 227.87C184.17 229.45 184.24 231.05 184.31 232.69C184.38 234.32 184.46 235.99 184.54 237.68C184.62 239.38 184.7 241.11 184.79 242.88C184.88 244.65 184.97 246.46 185.06 248.31C185.15 250.16 185.25 252.06 185.35 254C187.2 254.03 188.96 254.05 190.64 254.07C192.32 254.09 193.93 254.11 195.49 254.13C197.05 254.15 198.54 254.16 200 254.18C201.46 254.2 202.89 254.21 204.29 254.22C205.69 254.23 207.08 254.25 208.47 254.26C209.86 254.27 211.24 254.28 212.65 254.29C214.06 254.3 215.48 254.31 216.94 254.32C218.4 254.33 219.9 254.34 221.45 254.35C223 254.36 224.61 254.37 226.3 254.38C227.98 254.39 229.74 254.4 231.59 254.4C231.69 252.41 231.79 250.43 231.89 248.48C231.99 246.53 232.09 244.6 232.18 242.69C232.28 240.78 232.38 238.89 232.47 237.02C232.57 235.15 232.66 233.29 232.76 231.46C232.86 229.62 232.95 227.81 233.05 226.01C233.15 224.21 233.24 222.43 233.34 220.66C233.43 218.89 233.53 217.14 233.62 215.4C233.71 213.66 233.81 211.94 233.9 210.23C233.99 208.52 234.09 206.83 234.18 205.15C234.27 203.47 234.37 201.8 234.46 200.15C234.55 198.5 234.64 196.85 234.74 195.22C234.83 193.59 234.92 191.97 235.01 190.36C235.1 188.75 235.19 187.15 235.28 185.56C235.37 183.97 235.46 182.39 235.55 180.82C235.64 179.25 235.73 177.68 235.82 176.13C235.91 174.57 236 173.03 236.09 171.48C236.18 169.94 236.27 168.4 236.36 166.87C236.45 165.34 236.54 163.82 236.63 162.3C236.72 160.78 236.81 159.27 236.89 157.76C236.98 156.25 237.07 154.74 237.15 153.24C237.23 151.74 237.33 150.23 237.41 148.73C237.5 147.23 237.59 145.73 237.67 144.24C237.76 142.74 237.85 141.25 237.93 139.75C238.02 138.25 238.11 136.76 238.19 135.26C238.28 133.76 238.37 132.27 238.46 130.77C238.55 129.27 238.64 127.77 238.73 126.26C238.82 124.75 238.91 123.25 239 121.74C239.09 120.23 239.18 118.71 239.27 117.19C239.36 115.67 239.45 114.15 239.54 112.62C239.63 111.09 239.72 109.55 239.81 108.01C239.9 106.47 239.99 104.92 240.09 103.36C240.18 101.8 240.27 100.24 240.37 98.6699C240.46 97.0999 240.56 95.5199 240.65 93.9299C240.74 92.3399 240.84 90.7399 240.93 89.1299C241.02 87.5199 241.12 85.8999 241.22 84.2699C241.32 82.6399 241.41 80.9999 241.51 79.3399C241.61 77.6799 241.71 76.0199 241.8 74.3399C241.9 72.6599 242 70.9699 242.1 69.2599C242.2 67.5499 242.3 65.8299 242.4 64.0899C242.5 62.3499 242.6 60.5999 242.71 58.8299C242.81 57.0599 242.92 55.2799 243.02 53.4799C243.12 51.6799 243.23 49.8599 243.33 48.0199C243.44 46.1799 243.54 44.3299 243.65 42.4599C243.76 40.5899 243.86 38.6899 243.97 36.7799C244.08 34.8699 244.19 32.9399 244.3 30.9799C244.41 29.0299 244.52 27.0499 244.63 25.0599C242.78 25.0599 241.05 25.0699 239.4 25.0799C237.75 25.0899 236.19 25.0999 234.69 25.1099C233.19 25.1199 231.74 25.1299 230.33 25.1499C228.91 25.1599 227.53 25.1799 226.14 25.1999C224.75 25.2199 223.37 25.2399 221.95 25.2599C220.53 25.2799 219.09 25.2999 217.59 25.3299C216.09 25.3599 214.53 25.3799 212.88 25.4199C211.25 25.3999 209.52 25.4399 207.67 25.4799Z" fill="#F8E700"/>
<path d="M317.36 129.74C317.32 127.91 317.28 126.16 317.24 124.49C317.2 122.82 317.16 121.22 317.12 119.68C317.08 118.14 317.04 116.65 317 115.2C316.96 113.75 316.92 112.34 316.88 110.94C316.84 109.55 316.8 108.17 316.76 106.79C316.72 105.41 316.67 104.04 316.63 102.64C316.58 101.25 316.54 99.83 316.49 98.38C316.44 96.93 316.39 95.44 316.33 93.9C316.27 92.36 316.22 90.76 316.15 89.09C316.09 87.42 316.02 85.68 315.95 83.84C314.21 83.8 312.62 83.77 311.12 83.73C309.62 83.7 308.22 83.67 306.87 83.64C305.52 83.61 304.21 83.59 302.91 83.56C301.61 83.54 300.3 83.51 298.95 83.49C297.6 83.47 296.2 83.44 294.7 83.42C293.2 83.4 291.61 83.37 289.87 83.35C289.83 81.9 289.8 80.69 289.78 79.57C289.75 78.44 289.72 77.4 289.69 76.27C289.66 75.14 289.63 73.94 289.59 72.49C291.36 72.52 292.99 72.54 294.51 72.57C296.03 72.6 297.46 72.62 298.84 72.65C300.22 72.68 301.55 72.7 302.88 72.73C304.21 72.76 305.54 72.79 306.92 72.82C308.3 72.85 309.73 72.88 311.25 72.92C312.77 72.96 314.4 73 316.17 73.04C316.09 71.17 316 69.39 315.93 67.69C315.85 65.99 315.77 64.36 315.7 62.78C315.62 61.21 315.55 59.69 315.47 58.21C315.4 56.73 315.32 55.29 315.25 53.87C315.18 52.45 315.1 51.04 315.03 49.64C314.95 48.24 314.88 46.83 314.8 45.41C314.72 43.99 314.64 42.55 314.55 41.07C314.47 39.59 314.38 38.07 314.28 36.5C314.19 34.93 314.09 33.3 313.98 31.59C313.88 29.89 313.77 28.11 313.65 26.24C311.77 26.17 309.96 26.1 308.21 26.04C306.46 25.98 304.77 25.92 303.14 25.87C301.5 25.82 299.91 25.77 298.37 25.73C296.83 25.69 295.31 25.64 293.83 25.61C292.35 25.57 290.89 25.53 289.46 25.5C288.03 25.47 286.6 25.43 285.19 25.4C283.78 25.37 282.37 25.34 280.95 25.31C279.53 25.28 278.11 25.26 276.68 25.23C275.24 25.21 273.79 25.18 272.31 25.16C270.83 25.14 269.32 25.12 267.77 25.1C266.22 25.08 264.63 25.07 263 25.05C261.36 25.04 259.67 25.02 257.93 25.01C256.18 25 254.37 24.99 252.49 24.99C252.5 26.98 252.51 28.96 252.52 30.91C252.53 32.86 252.54 34.79 252.54 36.7C252.54 38.61 252.56 40.5 252.56 42.38C252.57 44.25 252.57 46.11 252.58 47.94C252.59 49.77 252.59 51.59 252.6 53.4C252.61 55.21 252.61 56.99 252.62 58.75C252.63 60.52 252.63 62.27 252.64 64.01C252.65 65.75 252.65 67.47 252.66 69.18C252.67 70.89 252.67 72.58 252.68 74.26C252.69 75.94 252.69 77.61 252.7 79.26C252.7 80.92 252.71 82.56 252.71 84.19C252.71 85.82 252.72 87.44 252.72 89.05C252.72 90.66 252.73 92.26 252.73 93.85C252.73 95.44 252.74 97.02 252.74 98.59C252.74 100.16 252.75 101.73 252.75 103.28C252.75 104.84 252.76 106.38 252.76 107.93C252.76 109.47 252.77 111.01 252.77 112.54C252.77 114.07 252.78 115.59 252.78 117.11C252.78 118.63 252.79 120.14 252.79 121.66C252.79 123.18 252.8 124.68 252.8 126.18C252.8 127.68 252.8 129.19 252.81 130.69C252.81 132.19 252.81 133.69 252.82 135.18C252.82 136.68 252.82 138.17 252.83 139.67C252.83 141.17 252.83 142.66 252.84 144.16C252.84 145.66 252.84 147.15 252.84 148.65C252.84 150.15 252.84 151.65 252.84 153.16C252.84 154.66 252.84 156.17 252.84 157.68C252.84 159.19 252.84 160.71 252.84 162.23C252.84 163.75 252.84 165.27 252.84 166.8C252.84 168.33 252.84 169.87 252.84 171.41C252.84 172.95 252.84 174.5 252.84 176.06C252.84 177.62 252.84 179.18 252.84 180.75C252.84 182.32 252.84 183.9 252.84 185.49C252.84 187.08 252.84 188.68 252.84 190.29C252.84 191.9 252.84 193.52 252.84 195.15C252.84 196.78 252.84 198.42 252.84 200.08C252.84 201.74 252.84 203.4 252.84 205.08C252.84 206.76 252.84 208.45 252.84 210.16C252.84 211.87 252.84 213.59 252.84 215.33C252.84 217.07 252.84 218.82 252.84 220.59C252.84 222.36 252.84 224.14 252.83 225.94C252.83 227.74 252.83 229.56 252.82 231.4C252.82 233.24 252.82 235.09 252.81 236.96C252.81 238.83 252.8 240.72 252.8 242.64C252.8 244.55 252.79 246.48 252.79 248.43C252.79 250.38 252.78 252.35 252.78 254.35C254.64 254.35 256.44 254.34 258.18 254.34C259.92 254.34 261.6 254.33 263.24 254.33C264.87 254.32 266.46 254.32 268.01 254.31C269.56 254.3 271.07 254.3 272.55 254.29C274.03 254.28 275.49 254.27 276.92 254.26C278.36 254.25 279.77 254.24 281.18 254.23C282.59 254.22 283.98 254.21 285.38 254.2C286.78 254.19 288.17 254.18 289.58 254.16C290.99 254.14 292.4 254.13 293.84 254.12C295.28 254.11 296.73 254.09 298.21 254.07C299.69 254.05 301.2 254.04 302.75 254.02C304.3 254 305.89 253.98 307.52 253.96C309.15 253.94 310.84 253.92 312.58 253.89C314.32 253.87 316.12 253.84 317.98 253.81C318.03 251.85 318.08 249.93 318.13 248.05C318.18 246.17 318.22 244.33 318.26 242.53C318.3 240.73 318.34 238.96 318.38 237.22C318.42 235.48 318.45 233.78 318.48 232.1C318.51 230.42 318.54 228.77 318.57 227.14C318.6 225.51 318.62 223.91 318.65 222.33C318.67 220.75 318.69 219.19 318.71 217.64C318.73 216.09 318.75 214.57 318.76 213.05C318.78 211.53 318.79 210.03 318.81 208.54C318.83 207.05 318.84 205.56 318.85 204.08C318.86 202.6 318.87 201.13 318.88 199.66C318.89 198.19 318.9 196.72 318.9 195.25C318.91 193.78 318.91 192.31 318.91 190.83C318.91 189.35 318.92 187.87 318.92 186.37C318.92 184.88 318.92 183.37 318.92 181.86C318.92 180.34 318.91 178.82 318.91 177.27C318.9 175.72 318.9 174.16 318.89 172.58C318.88 171 318.87 169.4 318.86 167.77C318.85 166.14 318.84 164.49 318.82 162.81C318.8 161.13 318.79 159.43 318.77 157.69C318.75 155.95 318.73 154.18 318.71 152.38C318.69 150.58 318.66 148.74 318.63 146.86C318.6 144.98 318.57 143.06 318.54 141.1C316.7 141.08 315.01 141.07 313.43 141.05C311.85 141.03 310.36 141.02 308.93 141.01C307.5 141 306.12 140.99 304.74 140.98C303.36 140.97 301.98 140.96 300.55 140.95C299.12 140.94 297.64 140.93 296.05 140.92C294.46 140.91 292.78 140.9 290.94 140.89C290.92 139.36 290.91 138.09 290.9 136.9C290.89 135.71 290.87 134.61 290.86 133.42C290.85 132.23 290.83 130.96 290.81 129.43C292.59 129.44 294.21 129.46 295.74 129.47C297.27 129.48 298.7 129.5 300.08 129.51C301.46 129.52 302.79 129.54 304.12 129.55C305.45 129.56 306.78 129.58 308.16 129.59C309.54 129.6 310.97 129.62 312.5 129.64C313.96 129.7 315.59 129.72 317.36 129.74Z" fill="#F8E700"/>
<path d="M390.39 131.09C390.3 129.1 390.21 127.22 390.12 125.43C390.03 123.64 389.94 121.93 389.85 120.28C389.76 118.63 389.67 117.05 389.58 115.5C389.49 113.95 389.4 112.44 389.3 110.94C389.21 109.44 389.11 107.96 389.01 106.46C388.91 104.96 388.81 103.45 388.7 101.9C388.59 100.35 388.48 98.77 388.35 97.12C388.22 95.47 388.1 93.77 387.95 91.97C387.81 90.18 387.66 88.3 387.49 86.31C385.75 86.23 384.16 86.16 382.66 86.09C381.16 86.02 379.76 85.96 378.41 85.9C377.06 85.84 375.75 85.79 374.45 85.73C373.15 85.68 371.84 85.62 370.49 85.57C369.14 85.51 367.74 85.46 366.24 85.4C364.74 85.34 363.15 85.28 361.41 85.21C361.31 83.79 361.23 82.6 361.15 81.5C361.07 80.39 361 79.37 360.92 78.26C360.84 77.15 360.75 75.97 360.65 74.55C362.42 74.62 364.05 74.69 365.57 74.76C367.1 74.83 368.52 74.89 369.9 74.95C371.28 75.01 372.61 75.07 373.94 75.14C375.27 75.21 376.6 75.27 377.98 75.33C379.36 75.4 380.79 75.47 382.31 75.54C383.84 75.62 385.46 75.7 387.23 75.79C387.06 73.96 386.89 72.23 386.73 70.57C386.57 68.91 386.41 67.32 386.25 65.78C386.09 64.25 385.94 62.77 385.79 61.32C385.64 59.88 385.49 58.47 385.33 57.08C385.17 55.69 385.03 54.32 384.87 52.95C384.72 51.58 384.56 50.21 384.4 48.82C384.24 47.43 384.07 46.03 383.9 44.58C383.73 43.14 383.55 41.66 383.36 40.12C383.17 38.59 382.97 37 382.76 35.33C382.55 33.67 382.32 31.93 382.08 30.11C380.2 29.97 378.39 29.83 376.64 29.7C374.89 29.57 373.2 29.45 371.57 29.34C369.93 29.22 368.34 29.12 366.8 29.01C365.25 28.91 363.74 28.8 362.26 28.71C360.78 28.61 359.32 28.52 357.89 28.43C356.46 28.34 355.03 28.25 353.62 28.17C352.21 28.09 350.8 28 349.38 27.92C347.97 27.84 346.54 27.76 345.11 27.68C343.67 27.6 342.22 27.52 340.74 27.44C339.26 27.36 337.75 27.28 336.2 27.21C334.65 27.13 333.06 27.05 331.43 26.98C329.79 26.9 328.1 26.82 326.36 26.75C324.61 26.67 322.8 26.59 320.92 26.52C321.06 28.5 321.19 30.45 321.32 32.38C321.45 34.31 321.58 36.23 321.7 38.12C321.82 40.01 321.94 41.89 322.06 43.74C322.18 45.6 322.29 47.43 322.4 49.25C322.51 51.07 322.62 52.87 322.72 54.65C322.82 56.43 322.92 58.2 323.02 59.95C323.12 61.7 323.21 63.44 323.3 65.16C323.39 66.88 323.48 68.59 323.57 70.28C323.66 71.97 323.74 73.65 323.82 75.31C323.9 76.97 323.98 78.63 324.06 80.27C324.14 81.91 324.21 83.54 324.28 85.15C324.35 86.77 324.42 88.37 324.49 89.97C324.56 91.57 324.62 93.15 324.69 94.72C324.75 96.3 324.81 97.86 324.87 99.42C324.93 100.98 324.99 102.53 325.04 104.07C325.09 105.61 325.15 107.15 325.2 108.67C325.25 110.2 325.3 111.72 325.35 113.23C325.4 114.75 325.45 116.26 325.49 117.76C325.53 119.26 325.58 120.77 325.62 122.26C325.66 123.76 325.7 125.25 325.74 126.74C325.78 128.23 325.82 129.72 325.85 131.2C325.89 132.69 325.92 134.17 325.95 135.65C325.98 137.13 326.01 138.61 326.04 140.1C326.07 141.59 326.1 143.06 326.12 144.55C326.15 146.03 326.17 147.52 326.2 149C326.22 150.49 326.25 151.97 326.27 153.46C326.29 154.95 326.31 156.44 326.33 157.94C326.35 159.44 326.36 160.94 326.38 162.44C326.4 163.95 326.41 165.45 326.42 166.97C326.43 168.49 326.44 170.01 326.45 171.53C326.46 173.06 326.47 174.59 326.47 176.13C326.48 177.67 326.48 179.22 326.48 180.78C326.48 182.34 326.48 183.9 326.48 185.48C326.48 187.06 326.48 188.64 326.47 190.23C326.47 191.82 326.46 193.43 326.45 195.05C326.44 196.67 326.43 198.29 326.42 199.93C326.41 201.57 326.4 203.22 326.38 204.89C326.36 206.56 326.35 208.23 326.33 209.92C326.31 211.61 326.29 213.32 326.27 215.04C326.25 216.76 326.22 218.5 326.2 220.25C326.17 222 326.14 223.77 326.11 225.55C326.08 227.33 326.04 229.14 326.01 230.95C325.97 232.77 325.93 234.61 325.89 236.46C325.85 238.31 325.8 240.19 325.76 242.08C325.71 243.97 325.66 245.89 325.61 247.82C325.56 249.75 325.5 251.71 325.44 253.68C327.3 253.65 329.1 253.62 330.84 253.59C332.58 253.56 334.26 253.53 335.9 253.5C337.53 253.47 339.12 253.44 340.67 253.41C342.22 253.38 343.73 253.35 345.21 253.32C346.69 253.29 348.15 253.26 349.58 253.23C351.01 253.2 352.43 253.17 353.84 253.13C355.25 253.09 356.64 253.06 358.04 253.03C359.44 253 360.83 252.96 362.24 252.93C363.65 252.9 365.06 252.86 366.5 252.82C367.94 252.78 369.39 252.74 370.87 252.71C372.35 252.67 373.86 252.63 375.41 252.59C376.96 252.55 378.55 252.5 380.18 252.46C381.81 252.41 383.5 252.36 385.24 252.31C386.98 252.26 388.78 252.2 390.64 252.15C390.75 250.15 390.86 248.2 390.96 246.29C391.06 244.38 391.15 242.51 391.24 240.67C391.33 238.84 391.41 237.04 391.48 235.28C391.56 233.52 391.62 231.79 391.69 230.08C391.75 228.38 391.81 226.71 391.87 225.06C391.93 223.41 391.98 221.79 392.02 220.19C392.07 218.59 392.11 217.01 392.15 215.44C392.19 213.87 392.23 212.33 392.26 210.79C392.29 209.25 392.32 207.73 392.35 206.21C392.38 204.69 392.4 203.19 392.42 201.68C392.44 200.18 392.46 198.68 392.47 197.18C392.49 195.68 392.5 194.18 392.51 192.68C392.52 191.18 392.53 189.67 392.53 188.15C392.53 186.63 392.53 185.11 392.53 183.57C392.53 182.03 392.52 180.48 392.51 178.92C392.5 177.35 392.49 175.77 392.47 174.17C392.45 172.57 392.44 170.94 392.41 169.3C392.38 167.66 392.36 165.98 392.33 164.28C392.3 162.58 392.26 160.85 392.22 159.08C392.18 157.31 392.14 155.52 392.09 153.69C392.04 151.86 391.99 149.99 391.92 148.07C391.85 146.15 391.79 144.2 391.72 142.21C389.88 142.17 388.19 142.14 386.61 142.11C385.02 142.08 383.54 142.05 382.11 142.03C380.68 142 379.3 141.98 377.92 141.95C376.54 141.92 375.16 141.9 373.73 141.88C372.3 141.86 370.82 141.83 369.23 141.8C367.64 141.77 365.96 141.75 364.12 141.72C364.08 140.22 364.04 138.97 364 137.8C363.96 136.63 363.93 135.55 363.89 134.38C363.85 133.21 363.81 131.96 363.75 130.46C365.53 130.5 367.15 130.53 368.68 130.56C370.21 130.59 371.64 130.62 373.02 130.65C374.4 130.68 375.73 130.71 377.06 130.74C378.39 130.77 379.72 130.8 381.1 130.83C382.48 130.86 383.91 130.9 385.44 130.93C386.99 131.01 388.61 131.05 390.39 131.09Z" fill="#F8E700"/>
<path d="M457.05 37.49C455.14 37.26 453.29 37.05 451.51 36.84C449.73 36.63 448 36.44 446.32 36.25C444.64 36.06 443.01 35.88 441.42 35.7C439.83 35.52 438.28 35.36 436.76 35.19C435.24 35.03 433.74 34.87 432.27 34.71C430.8 34.56 429.34 34.4 427.9 34.26C426.46 34.11 425.02 33.97 423.59 33.82C422.16 33.68 420.72 33.53 419.28 33.39C417.84 33.25 416.38 33.11 414.91 32.97C413.44 32.83 411.94 32.69 410.42 32.55C408.9 32.41 407.35 32.27 405.76 32.12C404.17 31.98 402.54 31.83 400.86 31.69C399.18 31.54 397.45 31.4 395.67 31.25C393.89 31.1 392.04 30.95 390.13 30.79C390.4 32.73 390.66 34.62 390.91 36.47C391.16 38.32 391.4 40.12 391.63 41.89C391.86 43.65 392.08 45.38 392.29 47.07C392.5 48.76 392.71 50.42 392.91 52.05C393.11 53.68 393.3 55.28 393.48 56.85C393.66 58.43 393.84 59.98 394.02 61.51C394.2 63.04 394.36 64.55 394.52 66.05C394.68 67.55 394.84 69.03 394.99 70.51C395.14 71.98 395.29 73.45 395.44 74.91C395.59 76.37 395.73 77.82 395.87 79.28C396.01 80.73 396.15 82.19 396.28 83.65C396.42 85.11 396.55 86.57 396.68 88.05C396.81 89.52 396.94 91.01 397.07 92.51C397.2 94.01 397.32 95.52 397.44 97.05C397.56 98.58 397.68 100.13 397.8 101.71C397.92 103.29 398.04 104.89 398.16 106.51C398.28 108.14 398.39 109.8 398.51 111.49C398.62 113.18 398.74 114.91 398.85 116.67C398.96 118.43 399.07 120.24 399.18 122.09C399.29 123.94 399.39 125.83 399.49 127.77C401.16 127.82 402.63 127.86 403.99 127.9C405.35 127.94 406.61 127.98 407.86 128.01C409.12 128.05 410.37 128.09 411.73 128.13C413.09 128.17 414.56 128.22 416.23 128.27C416.35 130.24 416.45 132.17 416.55 134.06C416.65 135.95 416.74 137.81 416.83 139.64C416.92 141.46 417 143.26 417.07 145.02C417.14 146.78 417.21 148.51 417.27 150.22C417.33 151.92 417.39 153.6 417.44 155.26C417.49 156.91 417.54 158.54 417.58 160.16C417.62 161.77 417.66 163.36 417.69 164.93C417.72 166.5 417.75 168.06 417.78 169.6C417.81 171.14 417.83 172.67 417.84 174.18C417.86 175.7 417.87 177.2 417.88 178.7C417.89 180.2 417.9 181.69 417.9 183.17C417.9 184.65 417.9 186.13 417.9 187.61C417.9 189.09 417.89 190.56 417.88 192.04C417.87 193.52 417.86 195 417.84 196.48C417.82 197.96 417.8 199.45 417.78 200.95C417.76 202.45 417.73 203.95 417.7 205.47C417.67 206.99 417.63 208.51 417.59 210.05C417.55 211.59 417.51 213.15 417.46 214.72C417.41 216.29 417.36 217.88 417.3 219.49C417.24 221.1 417.18 222.73 417.12 224.39C417.05 226.04 416.98 227.72 416.91 229.43C416.84 231.14 416.75 232.87 416.66 234.63C416.57 236.39 416.48 238.18 416.37 240.01C416.27 241.83 416.16 243.69 416.04 245.59C415.92 247.49 415.8 249.41 415.66 251.38C417.55 251.31 419.32 251.25 421.01 251.18C422.69 251.12 424.29 251.06 425.82 251C427.36 250.94 428.83 250.88 430.28 250.83C431.73 250.78 433.14 250.72 434.56 250.66C435.98 250.6 437.4 250.54 438.84 250.48C440.28 250.42 441.76 250.36 443.3 250.29C444.84 250.22 446.43 250.16 448.11 250.08C449.79 250.01 451.57 249.93 453.46 249.84C453.62 247.91 453.78 246.02 453.92 244.17C454.06 242.32 454.2 240.5 454.32 238.71C454.45 236.92 454.56 235.17 454.67 233.45C454.78 231.73 454.88 230.03 454.98 228.36C455.07 226.69 455.16 225.05 455.24 223.43C455.32 221.81 455.4 220.22 455.47 218.64C455.54 217.06 455.6 215.51 455.66 213.97C455.72 212.43 455.77 210.91 455.82 209.4C455.87 207.89 455.91 206.4 455.95 204.91C455.99 203.43 456.02 201.95 456.05 200.49C456.08 199.03 456.1 197.57 456.12 196.12C456.14 194.67 456.16 193.22 456.17 191.77C456.18 190.32 456.19 188.88 456.19 187.43C456.19 185.98 456.19 184.54 456.19 183.08C456.19 181.62 456.18 180.17 456.16 178.71C456.14 177.25 456.13 175.77 456.11 174.29C456.09 172.81 456.06 171.31 456.03 169.8C456 168.29 455.96 166.77 455.92 165.23C455.88 163.69 455.83 162.14 455.78 160.56C455.73 158.98 455.67 157.39 455.61 155.77C455.55 154.15 455.48 152.51 455.4 150.84C455.32 149.17 455.24 147.48 455.15 145.75C455.06 144.03 454.96 142.27 454.86 140.49C454.75 138.7 454.64 136.89 454.52 135.03C454.4 133.17 454.26 131.29 454.12 129.36C455.79 129.42 457.25 129.48 458.6 129.54C459.95 129.59 461.2 129.64 462.45 129.69C463.7 129.74 464.95 129.79 466.31 129.85C467.66 129.91 469.12 129.97 470.79 130.04C470.63 128.09 470.47 126.19 470.31 124.34C470.14 122.49 469.98 120.68 469.8 118.92C469.63 117.16 469.45 115.43 469.28 113.74C469.11 112.05 468.92 110.4 468.74 108.77C468.56 107.15 468.37 105.55 468.19 103.98C468.01 102.41 467.81 100.86 467.62 99.34C467.43 97.82 467.23 96.3 467.03 94.81C466.83 93.32 466.63 91.83 466.43 90.36C466.23 88.89 466.02 87.42 465.8 85.96C465.59 84.5 465.37 83.04 465.15 81.58C464.93 80.12 464.7 78.65 464.47 77.18C464.24 75.71 464 74.23 463.75 72.73C463.5 71.24 463.25 69.73 462.99 68.2C462.73 66.67 462.46 65.13 462.18 63.56C461.9 61.99 461.61 60.39 461.31 58.77C461.01 57.15 460.7 55.49 460.37 53.8C460.05 52.11 459.71 50.39 459.35 48.62C459 46.86 458.63 45.05 458.24 43.2C457.85 41.35 457.47 39.43 457.05 37.49Z" fill="#F8E700"/>
</svg>
