<svg width="449" height="321" viewBox="0 0 449 321" fill="none" xmlns="http://www.w3.org/2000/svg">
<path fill-rule="evenodd" clip-rule="evenodd" d="M295.24 100.49C295.28 102.16 295.32 103.91 295.36 105.74C293.59 105.72 291.96 105.7 290.5 105.64L289.937 105.633L289.934 105.633C288.615 105.615 287.369 105.599 286.16 105.59C285.451 105.585 284.756 105.577 284.066 105.569C283.414 105.562 282.767 105.555 282.12 105.55C281.474 105.545 280.827 105.538 280.175 105.531L280.172 105.531C279.483 105.523 278.788 105.515 278.08 105.51C277.786 105.508 277.49 105.505 277.192 105.502C276.842 105.499 276.489 105.495 276.131 105.492C275.358 105.484 274.563 105.475 273.74 105.47C273.403 105.468 273.061 105.465 272.714 105.462C272.361 105.459 272.003 105.456 271.639 105.452C270.738 105.444 269.798 105.436 268.81 105.43C268.816 105.856 268.821 106.261 268.827 106.651L268.827 106.686C268.841 107.682 268.853 108.571 268.86 109.42C268.865 110.015 268.872 110.588 268.88 111.16C268.888 111.732 268.895 112.305 268.9 112.9L268.902 113.184C268.912 114.292 268.922 115.481 268.94 116.89C270.78 116.9 272.46 116.91 274.05 116.92C275.64 116.93 277.12 116.94 278.55 116.95C279.98 116.96 281.36 116.97 282.74 116.98C284.12 116.99 285.5 117 286.93 117.01L287.108 117.011C288.483 117.021 289.915 117.031 291.43 117.05C292.312 117.061 293.228 117.069 294.186 117.078L295.173 117.086C295.62 117.091 296.075 117.095 296.54 117.1C296.57 119.06 296.6 120.98 296.63 122.86L296.636 123.219L296.636 123.245L296.636 123.248C296.664 124.993 296.691 126.704 296.71 128.38C296.73 130.18 296.75 131.95 296.77 133.69C296.78 134.536 296.787 135.372 296.794 136.202V136.204C296.802 137.08 296.81 137.947 296.82 138.81C296.84 140.464 296.85 142.089 296.86 143.695L296.86 143.77L296.875 146.15L296.89 148.58C296.895 149.362 296.897 150.14 296.9 150.914V150.925L296.9 150.942C296.903 151.721 296.905 152.497 296.91 153.27C296.91 154.043 296.912 154.809 296.915 155.571L296.915 155.587C296.918 156.347 296.92 157.104 296.92 157.86V162.37C296.92 163.116 296.918 163.857 296.915 164.596L296.915 164.615C296.912 165.355 296.91 166.092 296.91 166.83C296.91 168.31 296.91 169.78 296.9 171.25C296.9 172.72 296.89 174.19 296.88 175.66L296.85 180.08L296.85 180.11C296.84 181.58 296.83 183.06 296.81 184.54C296.8 185.29 296.792 186.042 296.785 186.798L296.785 186.818L296.785 186.823L296.784 186.829C296.777 187.565 296.77 188.305 296.76 189.05C296.75 190.509 296.732 191.968 296.712 193.454L296.71 193.64C296.69 195.19 296.67 196.75 296.65 198.33C296.634 199.146 296.622 199.968 296.609 200.797L296.609 200.811C296.597 201.581 296.584 202.357 296.57 203.14C296.54 204.77 296.51 206.42 296.48 208.1L296.477 208.287L296.476 208.308C296.448 209.92 296.418 211.552 296.38 213.22C296.34 214.96 296.3 216.73 296.26 218.53L296.249 219.011C296.213 220.657 296.176 222.337 296.13 224.05C296.08 225.93 296.03 227.85 295.98 229.81L295.44 229.819C293.771 229.846 292.151 229.872 290.58 229.89C288.969 229.918 287.401 229.937 285.884 229.956L285.876 229.956L285.52 229.96C283.89 229.98 282.3 230 280.75 230.02C280.002 230.03 279.263 230.037 278.533 230.044C277.75 230.052 276.976 230.06 276.21 230.07L276.041 230.072C274.619 230.092 273.225 230.11 271.84 230.12C270.4 230.13 268.99 230.14 267.58 230.16C266.17 230.18 264.78 230.19 263.38 230.2L259.18 230.23L256.454 230.249L254.92 230.26C253.49 230.27 252.03 230.28 250.55 230.29C250.083 230.293 249.613 230.295 249.14 230.297C248.855 230.298 248.568 230.299 248.281 230.3H248.28C247.532 230.303 246.776 230.305 246.01 230.31C245.225 230.315 244.43 230.318 243.625 230.32C242.84 230.323 242.045 230.325 241.24 230.33C240.432 230.33 239.615 230.332 238.785 230.335C237.93 230.337 237.063 230.34 236.18 230.34C235.328 230.34 234.462 230.342 233.581 230.345L233.57 230.345C232.656 230.347 231.726 230.35 230.78 230.35C230.78 229.344 230.783 228.345 230.785 227.353C230.788 226.373 230.79 225.399 230.79 224.43C230.79 223.452 230.793 222.478 230.795 221.51V221.507V221.505C230.798 220.545 230.8 219.59 230.8 218.64C230.8 217.674 230.803 216.715 230.805 215.763L230.807 215.011C230.807 214.811 230.808 214.612 230.808 214.413C230.809 213.927 230.81 213.443 230.81 212.96C230.82 211.09 230.82 209.24 230.82 207.4C230.83 205.56 230.83 203.74 230.83 201.94C230.84 200.14 230.84 198.36 230.84 196.59V191.33V186.16V181.08V176.08V171.15V166.29V161.49V156.75V152.06V147.41V142.8V138.23V133.68V129.16V124.65V120.16C230.83 118.66 230.83 117.17 230.83 115.67C230.82 114.17 230.82 112.68 230.82 111.18C230.81 109.69 230.81 108.19 230.81 106.69C230.8 105.19 230.8 103.68 230.8 102.18C230.8 101.432 230.798 100.685 230.795 99.935C230.793 99.18 230.79 98.4225 230.79 97.66C230.79 96.9 230.788 96.1425 230.785 95.385C230.783 94.6275 230.78 93.87 230.78 93.11C230.78 92.3513 230.778 91.5925 230.775 90.8325C230.773 90.07 230.77 89.3063 230.77 88.54C230.77 87.7763 230.768 87.01 230.765 86.2425L230.765 86.2323C230.762 85.4657 230.76 84.6979 230.76 83.93C230.76 83.1562 230.758 82.385 230.755 81.6125C230.753 80.8375 230.75 80.0613 230.75 79.28C230.75 78.5075 230.748 77.73 230.745 76.95C230.743 76.165 230.74 75.3775 230.74 74.59C230.74 73.81 230.738 73.0275 230.735 72.2425L230.735 72.235C230.733 71.4425 230.73 70.6475 230.73 69.85C230.73 69.0575 230.728 68.2625 230.725 67.465C230.723 66.6625 230.72 65.8575 230.72 65.05C230.72 64.2475 230.718 63.4425 230.715 62.635C230.713 61.8225 230.71 61.0075 230.71 60.19C230.71 59.3787 230.708 58.565 230.705 57.7475C230.703 56.9225 230.7 56.0938 230.7 55.26C230.695 54.4326 230.692 53.6001 230.69 52.7639V52.76C230.687 51.93 230.685 51.0962 230.68 50.26C230.675 49.4163 230.672 48.57 230.67 47.72C230.667 46.8775 230.665 46.0312 230.66 45.18C230.655 44.3227 230.652 43.4629 230.65 42.5993V42.595C230.647 41.7374 230.645 40.8762 230.64 40.01C230.635 39.1378 230.632 38.2631 230.63 37.3846V37.38C230.627 36.5074 230.625 35.6312 230.62 34.75C230.615 33.8638 230.612 32.9726 230.61 32.075C230.607 31.1899 230.605 30.2987 230.6 29.4C230.595 28.4925 230.592 27.5825 230.59 26.67V26.6625C230.587 25.7575 230.585 24.85 230.58 23.94C230.575 23.0207 230.572 22.0938 230.57 21.1618V21.16C230.567 20.2374 230.565 19.31 230.56 18.38C230.56 17.4437 230.555 16.505 230.55 15.5625C230.545 14.6125 230.54 13.6588 230.54 12.7C230.54 10.8096 230.53 8.89959 230.52 6.97L230.52 6.91001C230.51 4.96 230.5 2.98001 230.49 0.990005C232.37 0.990005 234.18 1.00001 235.93 1.01001C236.839 1.01523 237.734 1.02318 238.615 1.031H238.615H238.616C239.422 1.03817 240.217 1.04523 241 1.05C241.784 1.05963 242.559 1.06694 243.325 1.07416C244.151 1.08194 244.966 1.08963 245.77 1.10001C247.32 1.12001 248.83 1.14001 250.31 1.16001C251.075 1.17034 251.831 1.18334 252.582 1.19625L252.583 1.19626L252.584 1.19627C253.286 1.20835 253.984 1.22034 254.68 1.23001C255.389 1.24487 256.095 1.25728 256.799 1.26967L256.8 1.26967C257.517 1.28228 258.234 1.29487 258.95 1.31001C260.37 1.34001 261.78 1.37 263.19 1.40001C263.877 1.41462 264.568 1.4316 265.262 1.44865L265.263 1.44867L265.264 1.44868L265.264 1.4487C265.994 1.46663 266.727 1.48463 267.46 1.50001C268.81 1.52833 270.187 1.56557 271.582 1.6033L271.584 1.60335L271.83 1.61001C272.779 1.62923 273.744 1.65668 274.72 1.68444C275.267 1.69999 275.817 1.71564 276.37 1.73001C277.674 1.76387 279.014 1.80491 280.389 1.84704L281.14 1.87001C282.432 1.90964 283.761 1.95554 285.129 2.00275L285.129 2.00277L286.21 2.04001C287.516 2.08477 288.855 2.1351 290.231 2.18685L290.233 2.18691C290.701 2.2045 291.173 2.22225 291.65 2.24001C291.77 4.11001 291.88 5.89001 291.98 7.59001C292.09 9.30001 292.19 10.93 292.28 12.5C292.38 14.07 292.47 15.59 292.55 17.07C292.629 18.3665 292.7 19.6323 292.77 20.8808L292.8 21.41C292.838 22.082 292.873 22.7518 292.909 23.4194L292.909 23.4231L292.909 23.4269C292.949 24.1674 292.988 24.9051 293.03 25.64C293.063 26.3027 293.099 26.9676 293.134 27.6348L293.134 27.6385L293.134 27.6423C293.174 28.3821 293.213 29.1247 293.25 29.87C293.28 30.4745 293.311 31.0827 293.343 31.6961C293.386 32.5234 293.43 33.3601 293.47 34.21C293.519 35.1181 293.564 36.0413 293.611 36.9818V36.9825V36.9831L293.613 37.0335C293.641 37.609 293.67 38.191 293.7 38.78C293.749 39.878 293.802 41.0001 293.857 42.1531L293.862 42.2526L293.874 42.4982C293.892 42.8917 293.911 43.2889 293.93 43.69C293.967 44.5987 294.011 45.5302 294.055 46.4861C294.093 47.3186 294.133 48.1695 294.17 49.04C292.4 49 290.77 48.96 289.25 48.92C287.91 48.8847 286.64 48.8573 285.412 48.8307L284.92 48.82C283.54 48.79 282.21 48.76 280.88 48.73C280.183 48.7143 279.485 48.7013 278.78 48.6882C278.141 48.6763 277.496 48.6643 276.84 48.65C276.063 48.6331 275.271 48.6194 274.455 48.6053C273.822 48.5943 273.175 48.5831 272.51 48.57C271.603 48.5521 270.657 48.5378 269.666 48.5228L269.664 48.5227L269.661 48.5227L269.657 48.5226C268.989 48.5125 268.301 48.5021 267.59 48.49C267.616 49.4449 267.638 50.2914 267.659 51.0809C267.669 51.4902 267.68 51.8842 267.69 52.27L267.704 52.777C267.714 53.1631 267.725 53.5415 267.735 53.92L267.75 54.4499C267.76 54.8176 267.77 55.1887 267.78 55.57C267.8 56.69 267.83 57.9 267.87 59.35C268.896 59.3618 269.87 59.3771 270.804 59.3917H270.804H270.804C271.454 59.4019 272.085 59.4118 272.7 59.42C273.544 59.4313 274.356 59.4457 275.146 59.4597L275.15 59.4598C275.763 59.4706 276.361 59.4813 276.95 59.49C277.655 59.5004 278.348 59.5136 279.035 59.5266L279.038 59.5267L279.04 59.5267L279.045 59.5268C279.671 59.5387 280.292 59.5505 280.91 59.56C281.592 59.5757 282.276 59.5887 282.968 59.6018C283.595 59.6137 284.228 59.6257 284.87 59.64C286.22 59.67 287.62 59.7 289.12 59.73C290.077 59.7555 291.071 59.777 292.117 59.7995L292.117 59.7996L292.118 59.7996C292.711 59.8124 293.321 59.8255 293.95 59.84C293.974 60.4769 293.998 61.1019 294.022 61.7161C294.067 62.8762 294.111 63.9981 294.15 65.09C294.191 66.0751 294.226 67.0359 294.259 67.9744L294.259 67.9768L294.26 67.9888L294.26 68.0057C294.283 68.6473 294.306 69.2786 294.33 69.9C294.381 71.2216 294.426 72.5063 294.469 73.7606L294.469 73.7693L294.49 74.38C294.512 75.0287 294.533 75.6715 294.553 76.3082L294.553 76.3173L294.554 76.3289C294.578 77.1083 294.603 77.8786 294.63 78.64C294.651 79.3615 294.674 80.075 294.697 80.786C294.719 81.4547 294.741 82.1212 294.76 82.79C294.8 84.17 294.84 85.55 294.88 86.94C294.92 88.34 294.96 89.75 295 91.2C295.04 92.65 295.08 94.14 295.12 95.68C295.16 97.22 295.2 98.82 295.24 100.49ZM185.67 1.47991C185.633 2.08488 185.597 2.68518 185.56 3.28082C185.478 4.63463 185.396 5.96432 185.32 7.26991C185.288 7.82458 185.255 8.37491 185.223 8.92089L185.223 8.9216V8.92179C185.146 10.226 185.07 11.5054 185 12.7599C184.96 13.4701 184.919 14.1756 184.877 14.8756L184.877 14.8777L184.877 14.8792L184.877 14.88C184.815 15.9329 184.754 16.9736 184.7 17.9999C184.61 19.7099 184.51 21.3799 184.41 23.0199C184.349 24.0248 184.295 25.0184 184.242 26.0007L184.242 26.0015L184.242 26.003C184.208 26.6231 184.175 27.2388 184.14 27.8499C184.099 28.5705 184.06 29.287 184.021 30.0003L184.021 30.0095C183.975 30.857 183.929 31.6999 183.88 32.5399C183.838 33.3455 183.794 34.1456 183.749 34.9431L183.749 34.9485L183.749 34.9533L183.748 34.9582L183.748 34.9696C183.708 35.6877 183.668 36.4038 183.63 37.1199C183.55 38.6299 183.47 40.1299 183.39 41.6199C183.31 43.1099 183.23 44.5999 183.16 46.0899C183.12 46.8349 183.082 47.5774 183.045 48.3199C183.008 49.0624 182.97 49.8049 182.93 50.5499C182.888 51.3321 182.849 52.1171 182.809 52.9048L182.809 52.9108L182.809 52.9156C182.773 53.6248 182.738 54.3362 182.7 55.0499C182.62 56.5599 182.55 58.0799 182.48 59.6199C182.417 61.0055 182.346 62.4072 182.274 63.8252L182.25 64.2999C182.204 65.2001 182.162 66.1099 182.119 67.0295C182.087 67.7241 182.054 68.4242 182.02 69.1299C181.975 70.0603 181.932 71.0004 181.89 71.9501C181.857 72.6744 181.825 73.4044 181.79 74.1399C181.71 75.8499 181.63 77.59 181.56 79.37C181.519 80.4226 181.47 81.4927 181.421 82.5803L181.421 82.5848L181.421 82.5907C181.387 83.3389 181.353 84.0953 181.32 84.86C181.24 86.74 181.16 88.66 181.08 90.64C180.97 92.36 180.87 93.91 180.77 95.35C180.729 96.0063 180.688 96.6439 180.648 97.2665L180.647 97.2878C180.599 98.0239 180.553 98.7392 180.51 99.44C180.43 100.74 180.35 102.02 180.26 103.33C180.216 104.058 180.168 104.795 180.119 105.553C180.08 106.16 180.04 106.78 180 107.42C179.963 108.007 179.927 108.611 179.889 109.239C179.833 110.151 179.775 111.111 179.71 112.13C179.66 112.89 179.04 113.48 178.28 113.49C177.53 113.5 176.91 112.91 176.89 112.15C176.858 111.225 176.828 110.349 176.8 109.513C176.776 108.795 176.753 108.106 176.73 107.44C176.689 106.253 176.654 105.128 176.621 104.041L176.621 104.033L176.6 103.35C176.58 102.695 176.56 102.05 176.54 101.405L176.505 100.285L176.48 99.46C176.44 98.15 176.4 96.81 176.36 95.37C176.337 94.5586 176.312 93.7122 176.285 92.8202C176.264 92.1292 176.242 91.4108 176.22 90.66C176.215 89.6345 176.207 88.6252 176.199 87.6305L176.199 87.6235L176.199 87.6169L176.199 87.6107C176.192 86.6916 176.185 85.7851 176.18 84.89L176.179 84.7693C176.17 82.9413 176.16 81.1517 176.16 79.41C176.15 77.63 176.15 75.8899 176.15 74.1899C176.15 73.331 176.147 72.4797 176.145 71.6374C176.142 70.8126 176.14 69.9963 176.14 69.1899V64.3699C176.14 62.7899 176.14 61.2299 176.15 59.6999C176.16 58.1699 176.16 56.6399 176.16 55.1399C176.165 54.3874 176.167 53.6399 176.17 52.8949C176.172 52.1449 176.175 51.3974 176.18 50.6499L176.21 46.1999L176.24 41.7499C176.245 41.0229 176.252 40.2912 176.26 39.5557L176.26 39.55C176.267 38.7901 176.275 38.0263 176.28 37.2599C176.29 35.7705 176.309 34.2713 176.329 32.7624L176.329 32.7599L176.33 32.6999C176.35 31.1599 176.37 29.6099 176.39 28.0299L176.392 27.9067L176.392 27.8977V27.8967V27.8958C176.411 26.3594 176.431 24.8035 176.46 23.2099C176.479 21.6656 176.507 20.0854 176.535 18.4778L176.54 18.2099C176.57 16.5099 176.6 14.7699 176.63 12.9899C176.644 12.1775 176.659 11.3546 176.675 10.5223L176.675 10.5204L176.676 10.5179L176.676 10.515C176.695 9.52612 176.714 8.52389 176.73 7.5099C176.77 5.6399 176.81 3.71991 176.85 1.73991C175.541 1.77399 174.311 1.81273 173.135 1.84978C172.586 1.86707 172.048 1.884 171.52 1.89991C169.87 1.94991 168.32 1.99991 166.83 2.04991C165.342 2.09983 163.904 2.14977 162.466 2.19969L162.46 2.19991C161.803 2.22272 161.146 2.24762 160.484 2.27271L160.482 2.27277C159.694 2.30263 158.899 2.33274 158.09 2.35991C157.667 2.37695 157.239 2.39399 156.805 2.41125C155.712 2.45479 154.581 2.49979 153.4 2.54991L153.049 2.56475L152.303 2.59596L152.11 2.60403C150.838 2.65707 149.498 2.71296 148.07 2.77991C148.014 3.32933 147.958 3.87408 147.903 4.4146C147.76 5.81217 147.62 7.18144 147.49 8.52991C147.3 10.3899 147.12 12.2099 146.95 13.9799C146.891 14.597 146.831 15.2092 146.773 15.817L146.771 15.834L146.77 15.8411C146.661 16.9684 146.553 18.0804 146.45 19.1799C146.407 19.6385 146.363 20.0948 146.32 20.549L146.313 20.6185C146.2 21.8143 146.087 22.9948 145.98 24.1599C145.938 24.6124 145.897 25.0618 145.855 25.5088L145.849 25.5721L145.849 25.5789C145.743 26.718 145.639 27.8415 145.54 28.9599C145.4 30.5299 145.26 32.0799 145.12 33.6099C144.993 34.9927 144.875 36.3592 144.758 37.7168L144.72 38.1499C144.59 39.6499 144.46 41.1399 144.33 42.6199C144.268 43.3299 144.208 44.0399 144.148 44.7488C144.083 45.5176 144.018 46.2851 143.95 47.0499C143.89 47.7899 143.827 48.5274 143.765 49.2649C143.702 50.0024 143.64 50.7399 143.58 51.4799C143.46 52.9599 143.34 54.4499 143.22 55.9499C143.1 57.4499 142.98 58.9599 142.86 60.4899C142.74 62.0199 142.62 63.5699 142.5 65.1399C142.38 66.7099 142.26 68.3099 142.14 69.9299C142.02 71.5599 141.9 73.2099 141.78 74.9099C141.66 76.6 141.54 78.33 141.42 80.1C141.382 80.6568 141.344 81.2185 141.306 81.7849L141.305 81.8002L141.303 81.8342C141.221 83.0524 141.138 84.2921 141.05 85.55C140.92 87.41 140.8 89.32 140.68 91.29C140.623 91.984 140.57 92.6483 140.518 93.2883C140.443 94.2254 140.371 95.1103 140.3 95.96C140.199 97.1638 140.112 98.2968 140.028 99.4007L140.027 99.4027L140.027 99.4044L139.98 100.02C139.923 100.763 139.866 101.494 139.808 102.224L139.723 103.314L139.68 103.87C139.632 104.494 139.584 105.126 139.535 105.772L139.532 105.805C139.48 106.494 139.426 107.199 139.37 107.93C139.26 109.36 139.15 110.9 139.03 112.6C138.98 113.35 138.34 113.95 137.59 113.96C136.84 113.97 136.23 113.39 136.21 112.64C136.18 111.371 136.156 110.191 136.133 109.08L136.133 109.071L136.11 107.97L136.093 107.186L136.093 107.174L136.093 107.153L136.092 107.134C136.069 106.016 136.046 104.953 136.03 103.91C136.02 103.254 136.007 102.608 135.995 101.964C135.982 101.331 135.97 100.699 135.96 100.06C135.94 98.77 135.92 97.44 135.9 96C135.88 94.57 135.86 93.04 135.84 91.33C135.845 90.3131 135.853 89.3123 135.861 88.325V88.3237V88.3224V88.3211C135.868 87.4067 135.875 86.5037 135.88 85.61C135.887 84.3414 135.903 83.1007 135.919 81.8785V81.8769V81.8753L135.919 81.8681C135.926 81.3018 135.934 80.7394 135.94 80.18C135.951 79.2499 135.964 78.3335 135.977 77.4281L135.977 77.4197L135.977 77.4121C135.989 76.6 136.001 75.7966 136.01 74.9999C136.03 73.3099 136.06 71.6599 136.09 70.0399C136.12 68.4199 136.15 66.8299 136.18 65.2599C136.196 64.4309 136.214 63.6102 136.233 62.7965L136.233 62.7934L136.234 62.7452C136.25 62.0352 136.266 61.3304 136.28 60.6299C136.299 59.8985 136.316 59.1694 136.333 58.4438L136.333 58.4405L136.333 58.4367L136.333 58.4245V58.4242C136.351 57.6484 136.369 56.8765 136.39 56.1099C136.428 54.6955 136.466 53.2902 136.504 51.8853L136.51 51.6599C136.55 50.1899 136.59 48.7199 136.64 47.2499C136.68 45.7799 136.73 44.3099 136.78 42.8399C136.83 41.3699 136.88 39.8899 136.93 38.3899C136.978 36.9652 137.035 35.5221 137.092 34.0696L137.092 34.064L137.1 33.8699C137.16 32.3499 137.22 30.8099 137.28 29.2399C137.331 27.9132 137.389 26.5794 137.448 25.2203L137.448 25.2082L137.48 24.4699L137.507 23.834L137.508 23.8234C137.569 22.4115 137.631 20.977 137.7 19.5199L137.752 18.4232C137.815 17.0903 137.879 15.7293 137.95 14.3499L137.98 13.767L138.015 13.0666L138.015 13.065V13.0647L138.015 13.0641C138.084 11.7119 138.154 10.3324 138.23 8.92991C138.258 8.41642 138.285 7.8983 138.313 7.376L138.318 7.30051C138.389 5.96517 138.462 4.60259 138.54 3.21991C136.69 3.30991 134.96 3.39991 133.31 3.48991C132.167 3.55227 131.071 3.60984 130.004 3.66593L130.001 3.66609L129.981 3.66713C129.516 3.69157 129.056 3.71574 128.6 3.73991C127.1 3.81991 125.66 3.89991 124.24 3.98991C122.83 4.06991 121.44 4.14991 120.05 4.23991C118.929 4.30444 117.814 4.37549 116.679 4.44779L115.86 4.49991C115.479 4.52426 115.094 4.54861 114.707 4.57316L114.705 4.57327L114.701 4.57348L114.699 4.57365C113.656 4.63968 112.591 4.70714 111.5 4.77991C110.768 4.8287 110.022 4.87749 109.258 4.92745L109.258 4.92746L109.258 4.92747L109.257 4.92748L109.255 4.92766C108.454 4.98002 107.634 5.03365 106.79 5.0899C105.14 5.19991 103.41 5.31991 101.56 5.44991C101.44 7.4199 101.32 9.37991 101.2 11.3099L101.164 11.934L101.164 11.937L101.164 11.9394L101.164 11.9411C101.066 13.6567 100.969 15.3573 100.88 17.0499C100.785 18.8452 100.699 20.6225 100.614 22.3903L100.6 22.6699C100.518 24.3578 100.444 26.0374 100.371 27.7011L100.37 27.7176L100.37 27.7199L100.35 28.1799C100.276 29.8556 100.211 31.5143 100.147 33.1561L100.147 33.158L100.146 33.16L100.13 33.5799C100.065 35.2409 100.008 36.8932 99.952 38.5287L99.9519 38.5319L99.94 38.8799C99.8819 40.5761 99.8331 42.2535 99.7846 43.9212L99.7845 43.9253L99.78 44.0799L99.7716 44.368V44.3682V44.3684V44.3686C99.7244 45.9902 99.6778 47.5945 99.64 49.1899L99.6371 49.3129L99.6371 49.3141L99.637 49.3153L99.637 49.3163C99.598 50.9637 99.5592 52.6013 99.53 54.2199C99.5 55.8799 99.47 57.5299 99.44 59.1699C99.41 60.8099 99.39 62.4299 99.37 64.0499L99.3685 64.172L99.3685 64.1733C99.349 65.7512 99.3298 67.3103 99.32 68.8599L99.29 73.6099C99.28 75.1799 99.28 76.75 99.28 78.31C99.28 79.87 99.28 81.42 99.29 82.96C99.29 84.5 99.3 86.04 99.31 87.57C99.32 89.1 99.33 90.62 99.35 92.14C99.3566 92.6427 99.3621 93.1443 99.3676 93.6451C99.3788 94.6587 99.3899 95.6694 99.41 96.68C99.4201 97.4394 99.4327 98.1963 99.4452 98.9519L99.4453 98.9538L99.4453 98.9558L99.4453 98.9573C99.4577 99.7024 99.4701 100.446 99.48 101.19C99.51 102.69 99.54 104.19 99.57 105.68C99.585 106.425 99.6025 107.173 99.62 107.92C99.6375 108.668 99.655 109.415 99.67 110.16L99.79 114.63C99.81 115.375 99.8325 116.12 99.855 116.865C99.8775 117.61 99.9 118.355 99.92 119.1L100.07 123.57C100.095 124.315 100.122 125.062 100.15 125.81C100.178 126.558 100.205 127.305 100.23 128.05L100.41 132.55C100.47 134.05 100.54 135.56 100.61 137.07C100.646 137.855 100.683 138.643 100.719 139.432L100.82 141.62C100.89 143.14 100.97 144.67 101.05 146.2L101.063 146.44C101.138 147.891 101.215 149.351 101.3 150.82C101.331 151.357 101.361 151.893 101.391 152.43C101.448 153.445 101.505 154.463 101.57 155.49C101.612 156.22 101.656 156.954 101.701 157.691L101.701 157.692L101.701 157.692L101.701 157.693C101.751 158.53 101.802 159.37 101.85 160.21C101.95 161.79 102.05 163.38 102.15 164.99C102.234 166.343 102.325 167.688 102.417 169.051L102.47 169.83C102.571 171.324 102.681 172.836 102.792 174.356L102.82 174.74L102.846 175.101L102.846 175.101L102.846 175.102L102.846 175.102C102.958 176.633 103.07 178.172 103.19 179.72C103.32 181.39 103.45 183.08 103.58 184.78C103.71 186.48 103.85 188.2 104 189.93C104.127 191.499 104.262 193.085 104.398 194.679L104.44 195.17C104.563 196.617 104.693 198.078 104.825 199.553L104.91 200.51C105.032 201.887 105.161 203.269 105.29 204.667L105.29 204.668L105.29 204.668L105.29 204.669L105.351 205.324L105.41 205.96C105.56 207.572 105.717 209.207 105.876 210.852L105.94 211.52C106.084 213.017 106.235 214.528 106.387 216.051L106.5 217.19C106.69 219.1 106.89 221.03 107.1 222.99C107.3 224.94 107.51 226.92 107.73 228.92C109.204 228.961 110.626 228.994 111.996 229.027L112.95 229.05L113.775 229.07L113.78 229.07L113.782 229.07L113.784 229.07C115.145 229.103 116.458 229.135 117.73 229.16C119.128 229.197 120.485 229.225 121.808 229.252L121.812 229.252L122.18 229.26C123.62 229.29 125.02 229.32 126.41 229.35L127.569 229.375L129.504 229.418L130.53 229.44C131.9 229.47 133.27 229.5 134.65 229.52C135.377 229.536 136.106 229.549 136.843 229.562C137.515 229.574 138.193 229.586 138.88 229.6C139.653 229.616 140.438 229.629 141.235 229.643L141.241 229.643C141.927 229.654 142.623 229.666 143.33 229.68C144.174 229.697 145.035 229.71 145.917 229.724L145.927 229.724C146.641 229.735 147.369 229.747 148.11 229.76C149.77 229.79 151.5 229.82 153.33 229.84C153.32 227.9 153.32 226.01 153.32 224.16V218.74C153.32 217.845 153.323 216.962 153.325 216.09C153.328 215.238 153.33 214.395 153.33 213.56C153.33 211.87 153.34 210.21 153.35 208.58C153.36 206.95 153.37 205.35 153.38 203.77C153.385 202.961 153.393 202.16 153.401 201.365C153.408 200.608 153.415 199.857 153.42 199.11C153.43 198.356 153.437 197.605 153.445 196.857L153.445 196.851C153.452 196.083 153.46 195.319 153.47 194.56C153.49 193.06 153.51 191.58 153.53 190.1L153.561 187.834L153.59 185.7C153.6 184.964 153.613 184.227 153.625 183.492C153.638 182.77 153.65 182.049 153.66 181.33C153.668 180.938 153.675 180.547 153.682 180.156C153.688 179.839 153.694 179.521 153.699 179.203V179.202L153.7 179.145V179.145V179.145V179.144C153.713 178.417 153.725 177.69 153.74 176.96C153.77 175.5 153.8 174.03 153.83 172.56C153.86 171.08 153.89 169.6 153.93 168.1C153.951 167.316 153.969 166.53 153.987 165.738L153.987 165.732V165.732L153.988 165.731C154.004 165.009 154.021 164.283 154.04 163.55C154.08 162.02 154.12 160.46 154.16 158.89C154.179 158.155 154.199 157.415 154.22 156.67L154.221 156.657C154.245 155.806 154.269 154.947 154.29 154.08C154.308 153.495 154.325 152.906 154.341 152.314L154.342 152.3L154.342 152.296C154.372 151.243 154.402 150.178 154.44 149.1C154.462 148.363 154.486 147.618 154.509 146.865L154.51 146.859L154.51 146.853C154.541 145.885 154.572 144.904 154.6 143.91C154.66 142.14 154.72 140.34 154.78 138.49C154.829 136.972 154.885 135.426 154.942 133.848L154.943 133.822L154.943 133.82L154.944 133.817L154.98 132.81C155.03 131.435 155.085 130.116 155.138 128.849L155.138 128.837L155.168 128.125C155.179 127.861 155.189 127.599 155.2 127.34C155.27 125.62 155.34 123.98 155.41 122.41C155.438 121.771 155.465 121.142 155.492 120.52L155.492 120.509L155.492 120.505C155.531 119.604 155.569 118.719 155.61 117.84C155.642 117.159 155.672 116.484 155.702 115.813L155.703 115.795C155.738 115.014 155.772 114.237 155.81 113.46C155.834 112.954 155.858 112.448 155.881 111.941L155.881 111.938C155.924 110.993 155.968 110.043 156.02 109.08L156.057 108.298C156.115 107.068 156.174 105.813 156.24 104.51C156.27 103.93 156.299 103.34 156.329 102.74C156.381 101.717 156.433 100.664 156.49 99.58C156.511 99.181 156.532 98.7767 156.553 98.3669L156.559 98.2393L156.562 98.1945C156.629 96.8899 156.699 95.5297 156.78 94.11C156.83 93.36 157.46 92.76 158.2 92.74C158.95 92.73 159.55 93.31 159.55 94.07C159.55 95.0678 159.553 96.0312 159.555 96.967C159.558 97.8507 159.56 98.7098 159.56 99.55C159.565 100.394 159.567 101.214 159.57 102.014C159.572 102.856 159.575 103.676 159.58 104.48C159.59 106.05 159.6 107.57 159.61 109.05C159.62 110.53 159.63 111.99 159.65 113.44C159.67 114.89 159.68 116.35 159.69 117.83C159.7 118.603 159.708 119.387 159.716 120.183C159.723 120.911 159.73 121.65 159.74 122.4L159.746 122.837L159.746 122.839V122.841L159.746 122.87C159.764 124.297 159.783 125.782 159.81 127.34C159.821 128.002 159.831 128.675 159.842 129.363C159.858 130.474 159.875 131.622 159.9 132.82C159.93 134.76 159.97 136.66 160.01 138.51L160.021 139.008L160.021 139.019C160.057 140.692 160.093 142.332 160.12 143.93C160.16 145.7 160.2 147.43 160.24 149.12C160.28 150.82 160.32 152.48 160.36 154.11C160.381 154.981 160.406 155.844 160.43 156.699V156.7C160.451 157.445 160.471 158.185 160.49 158.92C160.511 159.754 160.535 160.58 160.559 161.401L160.559 161.405L160.559 161.407C160.58 162.138 160.601 162.865 160.62 163.59C160.66 165.13 160.71 166.64 160.76 168.14C160.784 168.857 160.805 169.571 160.827 170.282L160.827 170.294V170.294V170.294C160.851 171.067 160.874 171.836 160.9 172.6L160.94 173.79L161 175.541L161.05 177.01L161.2 181.39C161.225 182.12 161.253 182.85 161.28 183.58C161.307 184.31 161.335 185.04 161.36 185.77C161.408 187.171 161.465 188.581 161.523 190L161.53 190.18L161.532 190.232C161.591 191.695 161.651 193.158 161.71 194.65L161.724 195.001L161.724 195.008C161.78 196.391 161.836 197.791 161.9 199.2C161.953 200.55 162.013 201.907 162.074 203.285L162.074 203.292L162.1 203.87C162.17 205.45 162.24 207.05 162.31 208.69C162.373 210.151 162.444 211.645 162.515 213.156L162.54 213.68L162.576 214.436L162.576 214.44C162.644 215.895 162.713 217.373 162.79 218.88C162.88 220.65 162.97 222.46 163.06 224.31C163.129 225.735 163.205 227.19 163.281 228.67L163.282 228.678L163.284 228.727L163.285 228.736L163.35 230C165.021 230.027 166.618 230.046 168.15 230.064L168.154 230.064L168.64 230.07C170.32 230.09 171.93 230.11 173.49 230.13C174.23 230.139 174.955 230.147 175.668 230.154C176.458 230.162 177.233 230.169 178 230.18C179.431 230.2 180.833 230.21 182.206 230.219L182.29 230.22C182.993 230.225 183.693 230.233 184.392 230.24H184.394H184.395C185.087 230.248 185.779 230.255 186.47 230.26C187.86 230.27 189.24 230.28 190.65 230.29C192.06 230.3 193.48 230.31 194.94 230.32L197.48 230.337L199.45 230.35C201 230.36 202.61 230.37 204.3 230.38C205.98 230.39 207.74 230.4 209.59 230.4C209.69 228.41 209.79 226.43 209.89 224.48L209.92 223.888C210.01 222.139 210.099 220.406 210.18 218.69L210.211 218.09L210.212 218.079C210.301 216.376 210.39 214.69 210.47 213.02C210.515 212.176 210.558 211.334 210.601 210.495C210.653 209.477 210.705 208.464 210.76 207.46C210.804 206.641 210.847 205.829 210.889 205.02C210.942 204.012 210.994 203.009 211.05 202.01C211.096 201.184 211.14 200.362 211.183 199.543L211.184 199.539C211.235 198.575 211.286 197.616 211.34 196.66C211.389 195.705 211.44 194.756 211.491 193.811V193.811V193.81C211.535 193.004 211.579 192.201 211.62 191.4C211.668 190.462 211.72 189.531 211.771 188.603L211.771 188.596C211.815 187.805 211.859 187.016 211.9 186.23C211.949 185.305 212 184.386 212.052 183.471L212.052 183.465L212.052 183.458C212.096 182.686 212.139 181.917 212.18 181.15C212.229 180.236 212.281 179.325 212.333 178.419C212.376 177.659 212.419 176.903 212.46 176.15C212.55 174.5 212.64 172.85 212.74 171.22C212.83 169.59 212.92 167.97 213.01 166.36C213.1 164.75 213.19 163.15 213.28 161.56C213.37 159.97 213.46 158.39 213.55 156.82C213.64 155.25 213.73 153.68 213.82 152.13C213.853 151.555 213.886 150.982 213.92 150.411L214 149.028L214.09 147.48L214.228 145.115C214.272 144.365 214.316 143.616 214.36 142.87C214.448 141.38 214.535 139.899 214.623 138.418L214.63 138.3L214.645 138.045C214.73 136.611 214.814 135.186 214.89 133.76C214.98 132.25 215.07 130.74 215.15 129.24C215.19 128.49 215.235 127.738 215.28 126.985L215.28 126.985C215.325 126.233 215.37 125.48 215.41 124.73C215.5 123.23 215.59 121.73 215.67 120.24L215.684 119.999L215.685 119.997L215.685 119.995L215.685 119.994C215.77 118.577 215.854 117.168 215.93 115.75L215.945 115.503L215.945 115.501L215.945 115.499C216.03 114.084 216.114 112.676 216.19 111.26C216.235 110.51 216.28 109.763 216.325 109.015L216.407 107.657L216.46 106.77C216.55 105.27 216.64 103.77 216.73 102.26L216.865 100L216.953 98.5297L217 97.74C217.09 96.23 217.18 94.71 217.27 93.19C217.36 91.67 217.45 90.15 217.54 88.62C217.63 87.09 217.72 85.55 217.81 84.01L217.826 83.7402L217.826 83.7327C217.911 82.284 217.996 80.8264 218.09 79.36V79.3598V79.3596V79.3593V79.3591C218.18 77.7994 218.27 76.2397 218.37 74.6699C218.412 73.9396 218.456 73.2072 218.5 72.4726L218.501 72.4614L218.501 72.4497L218.502 72.4378L218.502 72.4371V72.4367C218.552 71.6039 218.603 70.7683 218.65 69.9299C218.692 69.1821 218.737 68.4321 218.782 67.6798C218.832 66.8326 218.882 65.9827 218.93 65.1299C219.014 63.6186 219.108 62.0984 219.202 60.5695L219.22 60.2699C219.274 59.3823 219.326 58.4917 219.378 57.5966L219.378 57.5939C219.421 56.8461 219.465 56.0951 219.51 55.3399V55.3397V55.3395V55.3393V55.3391C219.61 53.6794 219.71 52.0196 219.8 50.3399C219.9 48.6599 220 46.9699 220.1 45.2599C220.2 43.5499 220.3 41.8299 220.4 40.0899L220.418 39.7715C220.512 38.1364 220.607 36.492 220.71 34.8299C220.755 34.0257 220.803 33.2195 220.851 32.4103L220.851 32.3961L220.852 32.3906L220.852 32.3844L220.853 32.3771C220.909 31.4162 220.966 30.4509 221.02 29.4799C221.064 28.6895 221.11 27.8953 221.156 27.0973L221.157 27.0806L221.157 27.0744C221.216 26.0624 221.274 25.0443 221.33 24.0199C221.39 23.0195 221.447 22.0162 221.504 21.0083C221.552 20.1623 221.6 19.3132 221.65 18.4599C221.711 17.4269 221.768 16.3847 221.827 15.3367V15.3366V15.3364V15.3363C221.874 14.4874 221.921 13.6346 221.97 12.7799C222.08 10.8699 222.19 8.93991 222.3 6.97991C222.41 5.02991 222.52 3.04991 222.63 1.05991C220.78 1.05991 219.05 1.06991 217.4 1.07991C215.75 1.08991 214.19 1.09991 212.69 1.10991C211.19 1.11991 209.74 1.12991 208.33 1.14991C206.929 1.15977 205.567 1.17938 204.195 1.19911L204.14 1.19991L203.314 1.21181C202.201 1.22784 201.088 1.24387 199.95 1.2599L199.823 1.2617L199.822 1.26171L199.821 1.26172L199.821 1.26172C198.443 1.28113 197.045 1.30081 195.59 1.32991C195.029 1.34114 194.459 1.35096 193.879 1.36096C192.91 1.37768 191.912 1.39488 190.88 1.41991C189.32 1.40077 187.669 1.43657 185.908 1.47475L185.67 1.47991ZM51.82 231.72C50.33 231.83 48.79 231.86 47.2 231.79C45.52 231.72 43.88 231.56 42.32 231.32C40.72 231.06 39.16 230.71 37.64 230.27C36.12 229.83 34.64 229.3 33.2 228.67C31.76 228.04 30.36 227.32 28.99 226.51C27.62 225.7 26.29 224.8 25 223.8C23.71 222.81 22.45 221.72 21.23 220.54C20.01 219.36 18.83 218.09 17.68 216.72C16.53 215.35 15.42 213.89 14.35 212.34C13.56 211.2 12.8 210.02 12.08 208.8C11.35 207.58 10.66 206.31 10 205.01C9.34001 203.71 8.72001 202.37 8.12001 200.98C7.52001 199.59 6.96001 198.17 6.43001 196.7C5.90001 195.24 5.41001 193.73 4.95001 192.18C4.49001 190.63 4.07001 189.04 3.68001 187.41C3.29001 185.78 2.94001 184.11 2.63001 182.4C2.31001 180.69 2.04001 178.94 1.80001 177.15C1.56001 175.36 1.36001 173.53 1.20001 171.66C1.04001 169.79 0.920012 167.88 0.840012 165.93C0.760012 163.98 0.730011 161.99 0.730011 159.96C0.730011 158.87 0.730011 158.32 0.740011 157.22C1.70083 157.215 2.63575 157.213 3.54476 157.21C4.50899 157.208 5.44407 157.205 6.35001 157.2L6.59592 157.199C8.26668 157.189 9.86516 157.18 11.4 157.18C12.2166 157.18 13.0177 157.177 13.8074 157.175C14.5746 157.172 15.3309 157.17 16.08 157.17C16.8388 157.17 17.5951 157.167 18.3475 157.165C19.0925 157.162 19.8337 157.16 20.57 157.16C21.3037 157.16 22.0398 157.158 22.7807 157.155H22.7818H22.7829H22.784H22.7851C23.5375 157.153 24.2949 157.15 25.06 157.15C25.8091 157.15 26.5654 157.148 27.3327 157.145C28.1223 157.143 28.9234 157.14 29.74 157.14C30.5259 157.14 31.3262 157.138 32.1454 157.135C33.0043 157.133 33.8841 157.13 34.79 157.13C36.56 157.13 38.42 157.13 40.4 157.12C40.41 158.18 40.48 159.16 40.6 160.07C40.73 160.98 40.91 161.8 41.14 162.55C41.49 163.64 41.94 164.47 42.5 165.02C43.06 165.57 43.73 165.85 44.49 165.85C45.38 165.86 46.99 165.47 47.76 162.87C48.16 161.51 48.36 159.87 48.37 158.02V157.79C48.38 156.04 48.22 154.57 47.9 153.39C47.58 152.21 47.1 151.33 46.46 150.74C45.82 150.15 45.01 149.87 44.06 149.87C42.9005 149.82 41.881 149.771 40.9343 149.725C40.5419 149.706 40.1621 149.688 39.79 149.67C39.155 149.64 38.5425 149.61 37.93 149.58C37.3175 149.55 36.705 149.52 36.07 149.49C35.6534 149.47 35.2282 149.451 34.7881 149.431C33.876 149.389 32.8994 149.344 31.8 149.29C29.87 149.21 28.04 149 26.32 148.67C24.6 148.34 22.98 147.88 21.46 147.3C19.95 146.71 18.53 146 17.22 145.16C15.91 144.32 14.7 143.36 13.59 142.26C12.48 141.16 11.47 139.94 10.57 138.59C9.66001 137.23 8.86001 135.75 8.16001 134.14C7.73001 133.15 7.32001 132.1 6.95001 130.99C6.57001 129.88 6.23001 128.71 5.91001 127.48C5.59001 126.26 5.31001 124.97 5.05001 123.62C4.80001 122.27 4.57001 120.86 4.38001 119.4C4.19001 117.93 4.03001 116.41 3.90001 114.83C3.78001 113.25 3.68001 111.62 3.62001 109.92C3.56001 108.22 3.53001 106.47 3.54001 104.66C3.55001 102.85 3.60001 100.99 3.68001 99.06C3.76001 97.13 3.88001 95.15 4.04001 93.11C4.20001 91.07 4.40001 88.97 4.63001 86.82C4.64501 86.69 4.65501 86.5925 4.66501 86.495C4.67501 86.3975 4.68501 86.3 4.70001 86.17C4.92001 84.2 5.16001 82.27 5.43001 80.38C5.69001 78.48 5.98001 76.63 6.30001 74.81C6.61001 72.99 6.95001 71.21 7.31001 69.47C7.67001 67.73 8.06001 66.03 8.46001 64.36C8.86001 62.7 9.29001 61.07 9.73001 59.48C10.17 57.89 10.64 56.33 11.12 54.82C11.61 53.3 12.11 51.83 12.63 50.39C13.15 48.95 13.69 47.55 14.24 46.19C14.79 44.83 15.36 43.5 15.95 42.22C16.54 40.93 17.14 39.69 17.76 38.48C18.38 37.28 19.01 36.11 19.66 34.98C20.3 33.85 20.97 32.76 21.64 31.71C22.31 30.66 23 29.65 23.7 28.68C24.71 27.29 25.74 25.97 26.79 24.72C27.84 23.47 28.92 22.29 30.03 21.18C31.14 20.07 32.27 19.03 33.43 18.05C34.59 17.07 35.78 16.17 36.99 15.33C38.2 14.49 39.44 13.72 40.71 13.02C41.97 12.32 43.27 11.69 44.59 11.13C45.91 10.57 47.26 10.07 48.64 9.65C50.02 9.23 51.43 8.88 52.87 8.59C54.31 8.3 55.78 8.09 57.29 7.94C59.12 7.76 60.88 7.7 62.54 7.77C64.2 7.84 65.79 8.03 67.3 8.34C68.81 8.65 70.24 9.09 71.6 9.65C72.96 10.21 74.24 10.9 75.45 11.71C76.66 12.52 77.8 13.46 78.87 14.52C79.93 15.58 80.94 16.77 81.87 18.09C82.8 19.4 83.67 20.85 84.48 22.42C85 23.43 85.49 24.48 85.94 25.58C86.39 26.68 86.82 27.82 87.21 29.01C87.6 30.2 87.97 31.43 88.3 32.71C88.63 33.99 88.94 35.31 89.21 36.68C89.48 38.04 89.73 39.46 89.94 40.91C90.15 42.36 90.34 43.86 90.49 45.4C90.64 46.94 90.77 48.52 90.86 50.15C90.95 51.78 91.02 53.45 91.05 55.16C91.08 56.87 91.09 58.63 91.06 60.42C91.04 62.21 90.98 64.04 90.9 65.92C90.82 67.8 90.7 69.71 90.56 71.67C90.545 71.905 90.5325 72.08 90.52 72.255C90.5075 72.43 90.495 72.605 90.48 72.84C89.3905 72.8861 88.3376 72.9289 87.3192 72.9703C86.5711 73.0007 85.8416 73.0303 85.13 73.06C84.5501 73.0842 83.9809 73.1071 83.4208 73.1297L83.4156 73.13C82.3549 73.1728 81.3268 73.2142 80.32 73.26C79.4146 73.2953 78.5334 73.334 77.6662 73.3721H77.666L77.6657 73.3722L77.6651 73.3722L77.661 73.3724C77.055 73.399 76.4558 73.4253 75.86 73.45C75.1114 73.4812 74.3683 73.5151 73.6277 73.5489L73.6249 73.549L73.6219 73.5491L73.6193 73.5492C72.9381 73.5803 72.2591 73.6113 71.58 73.64C70.8077 73.6783 70.0324 73.7137 69.2508 73.7493C68.6054 73.7787 67.9558 73.8083 67.3 73.84C65.85 73.91 64.37 73.98 62.84 74.05C61.8754 74.0941 60.883 74.1422 59.8603 74.1918C59.2608 74.2209 58.6509 74.2504 58.03 74.28C57.1905 74.3247 56.3312 74.367 55.4472 74.4104H55.4471H55.447L55.4466 74.4104L55.4462 74.4105L55.4415 74.4107L55.4281 74.4113L55.4226 74.4116C54.5349 74.4553 53.6224 74.5002 52.68 74.55C52.78 73.27 52.88 71.39 52.49 69.86C52.1 68.33 51.24 67.15 49.4 67.25C48.43 67.31 47.02 67.79 45.88 69.79C45.18 71.01 44.74 72.55 44.55 74.51C44.5473 74.5341 44.5454 74.5546 44.5437 74.5735L44.541 74.6075L44.54 74.6201L44.54 74.6206L44.5399 74.6209C44.5383 74.6421 44.5367 74.6632 44.5343 74.6879C44.5331 74.7008 44.5317 74.7147 44.53 74.73C44.4 76.02 44.4 77.08 44.53 77.96C44.66 78.84 44.92 79.53 45.31 80.07C45.73 80.63 46.33 81.08 47.1 81.38C47.87 81.68 48.83 81.86 49.96 81.9C51.0272 81.9274 52.0016 81.9577 52.9142 81.9862C53.6692 82.0097 54.3819 82.0319 55.07 82.05C56.2862 82.082 57.4384 82.1204 58.629 82.1601H58.6292H58.6294H58.6295H58.6297L59.53 82.19L60.4477 82.2197L60.7254 82.2286C61.9139 82.2668 63.1905 82.3079 64.65 82.36C66.16 82.42 67.59 82.59 68.94 82.88C70.29 83.17 71.57 83.58 72.77 84.11C73.97 84.64 75.1 85.3 76.16 86.07C77.22 86.84 78.2 87.74 79.12 88.76C80.04 89.78 80.89 90.92 81.67 92.19C82.46 93.46 83.17 94.85 83.83 96.37C84.2 97.22 84.54 98.13 84.87 99.1C85.2 100.07 85.5 101.1 85.79 102.19C86.08 103.28 86.34 104.43 86.59 105.64C86.83 106.85 87.06 108.12 87.27 109.45C87.48 110.78 87.67 112.17 87.84 113.62C88.01 115.07 88.16 116.58 88.3 118.15C88.43 119.72 88.55 121.35 88.65 123.03C88.75 124.72 88.83 126.45 88.9 128.26C88.97 130.07 89.02 131.92 89.05 133.84C89.09 135.76 89.11 137.73 89.11 139.76C89.11 141.79 89.1 143.88 89.07 146.02C89.0554 146.686 89.0515 147.111 89.0465 147.652L89.0465 147.653L89.0464 147.655L89.0464 147.661L89.0422 148.097L89.04 148.31C89.02 150.36 88.98 152.38 88.92 154.37C88.86 156.35 88.78 158.31 88.69 160.23C88.59 162.15 88.48 164.04 88.35 165.89C88.22 167.74 88.07 169.56 87.9 171.35C87.73 173.14 87.54 174.89 87.33 176.61C87.12 178.33 86.9 180.01 86.65 181.66C86.4 183.31 86.14 184.92 85.85 186.5C85.56 188.08 85.26 189.62 84.93 191.13C84.61 192.64 84.26 194.11 83.89 195.54C83.52 196.97 83.13 198.37 82.72 199.73C82.31 201.1 81.88 202.42 81.43 203.71C80.98 204.99 80.5 206.25 80.01 207.46C79.51 208.67 79 209.85 78.46 210.99C77.69 212.61 76.89 214.15 76.04 215.58C75.19 217.01 74.31 218.35 73.38 219.59C72.45 220.83 71.48 221.98 70.47 223.03C69.46 224.08 68.4 225.04 67.3 225.9C66.2 226.76 65.05 227.53 63.86 228.2C62.67 228.87 61.43 229.45 60.14 229.93C58.85 230.41 57.51 230.8 56.13 231.1C54.75 231.4 53.31 231.6 51.82 231.72ZM434.958 267.673L434.906 267.677L434.046 267.744C433.765 267.766 433.487 267.788 433.21 267.81C431.44 267.95 429.75 268.08 428.11 268.2C426.48 268.32 424.9 268.44 423.36 268.56C422.708 268.607 422.063 268.655 421.425 268.703L421.423 268.703L421.421 268.703L421.417 268.703C420.55 268.768 419.695 268.833 418.85 268.89C418.167 268.941 417.489 268.989 416.813 269.038L416.796 269.039C416.012 269.095 415.231 269.151 414.45 269.21C413.769 269.257 413.088 269.305 412.405 269.354L412.388 269.356C411.994 269.384 411.599 269.412 411.204 269.44C411.015 269.453 410.826 269.467 410.637 269.48C410.442 269.493 410.246 269.507 410.05 269.52C409.435 269.562 408.817 269.605 408.195 269.648C407.319 269.71 406.435 269.772 405.54 269.83C404.579 269.892 403.607 269.959 402.613 270.026C402.014 270.067 401.407 270.109 400.79 270.15C399.16 270.26 397.46 270.37 395.69 270.48C394.869 270.531 394.032 270.584 393.176 270.638C392.185 270.701 391.171 270.766 390.13 270.83C390.189 270.295 390.246 269.792 390.3 269.314L390.301 269.303C390.392 268.497 390.475 267.761 390.55 267.06L390.616 266.442L390.725 265.415C390.782 264.872 390.84 264.33 390.9 263.77C390.97 263.114 391.041 262.427 391.117 261.68L391.118 261.673L391.201 260.862C391.229 260.584 391.259 260.297 391.29 260C392.353 259.939 393.391 259.881 394.405 259.825C395.223 259.779 396.024 259.735 396.81 259.69C398.57 259.59 400.27 259.49 401.9 259.39C403.112 259.316 404.292 259.248 405.447 259.181C405.854 259.157 406.259 259.133 406.66 259.11C407.567 259.057 408.461 259 409.344 258.945C409.96 258.906 410.572 258.867 411.18 258.83C412.66 258.74 414.11 258.65 415.56 258.55C417.01 258.46 418.44 258.37 419.89 258.27C421.089 258.196 422.289 258.114 423.505 258.032L423.529 258.03L424.27 257.98C425.75 257.88 427.25 257.78 428.79 257.68C430.33 257.58 431.91 257.47 433.55 257.35C435.19 257.24 436.88 257.12 438.64 256.99C439.652 256.915 440.69 256.841 441.755 256.764C442.542 256.707 443.344 256.65 444.16 256.59C444.231 256.064 444.301 255.554 444.369 255.057C444.539 253.816 444.697 252.66 444.84 251.56C444.882 251.24 444.923 250.926 444.963 250.615L444.966 250.595C445.12 249.415 445.266 248.293 445.4 247.19C445.473 246.595 445.546 246.005 445.618 245.415C445.716 244.628 445.813 243.84 445.91 243.04C446.02 242.137 446.127 241.212 446.237 240.253L446.327 239.469C446.358 239.205 446.389 238.939 446.42 238.67C446.6 237.13 446.78 235.48 446.97 233.64C446.163 233.685 445.361 233.728 444.565 233.771L444.564 233.771H444.563H444.562H444.562C443.405 233.833 442.261 233.895 441.13 233.96C439.21 234.06 437.33 234.16 435.48 234.26C433.896 234.346 432.327 234.424 430.779 234.501L430.771 234.502L430 234.54C428.2 234.63 426.43 234.72 424.69 234.81C423.187 234.887 421.705 234.957 420.246 235.026L420.238 235.027L419.53 235.06C417.83 235.14 416.16 235.22 414.5 235.3C413.75 235.336 413.007 235.37 412.267 235.404C411.37 235.445 410.478 235.486 409.59 235.53C408.71 235.568 407.837 235.609 406.969 235.65L406.949 235.651C406.226 235.685 405.506 235.718 404.79 235.75C403.2 235.82 401.63 235.89 400.08 235.96C399.35 235.993 398.625 236.023 397.903 236.054H397.903H397.902H397.902H397.901C397.08 236.088 396.264 236.123 395.45 236.16C394.651 236.191 393.852 236.225 393.056 236.259C392.327 236.29 391.601 236.321 390.88 236.35C389.37 236.41 387.86 236.47 386.36 236.53C384.86 236.59 383.36 236.65 381.87 236.71C381.517 236.724 381.164 236.738 380.811 236.751L380.414 236.766L380.065 236.779L379.635 236.795L379.607 236.796C378.871 236.823 378.136 236.85 377.4 236.88C376.655 236.91 375.913 236.938 375.171 236.965H375.17C374.427 236.992 373.685 237.02 372.94 237.05C372.212 237.074 371.486 237.101 370.759 237.128L370.748 237.129L370.693 237.131L370.681 237.131L370.134 237.151C369.792 237.164 369.449 237.176 369.105 237.188C368.894 237.196 368.682 237.203 368.47 237.21L368.337 237.214H368.337H368.337H368.336H368.336H368.335C366.89 237.263 365.435 237.312 363.98 237.37C362.974 237.41 361.964 237.441 360.953 237.473L360.937 237.473L360.229 237.495C359.973 237.503 359.716 237.512 359.46 237.52C357.95 237.57 356.42 237.62 354.89 237.67C353.36 237.72 351.81 237.77 350.26 237.82C348.7 237.87 347.13 237.92 345.55 237.96C344.733 237.986 343.912 238.009 343.09 238.032L343.084 238.032L343.079 238.032L343.014 238.034C342.651 238.044 342.287 238.055 341.922 238.065C341.532 238.076 341.141 238.088 340.75 238.1C339.894 238.126 339.035 238.15 338.171 238.174L338.134 238.175H338.132C337.373 238.196 336.61 238.217 335.84 238.24C334.18 238.29 332.51 238.33 330.81 238.37C330.295 238.382 329.778 238.395 329.259 238.409L328.38 238.431C327.476 238.455 326.566 238.479 325.65 238.5C324.82 238.519 323.985 238.54 323.145 238.562C322.216 238.585 321.281 238.609 320.34 238.63C318.54 238.67 316.72 238.71 314.86 238.75C313 238.79 311.12 238.83 309.21 238.87C307.3 238.91 305.35 238.95 303.37 238.99C303.341 239.769 303.314 240.54 303.287 241.302C303.249 242.389 303.211 243.458 303.17 244.51L303.157 244.844C303.133 245.458 303.111 246.067 303.088 246.67L303.088 246.682L303.087 246.698C303.049 247.726 303.011 248.737 302.97 249.73C302.951 250.193 302.933 250.652 302.915 251.108L302.886 251.839C302.848 252.806 302.811 253.758 302.77 254.7C302.762 254.886 302.754 255.071 302.746 255.255C302.733 255.56 302.721 255.863 302.708 256.165L302.684 256.754C302.647 257.664 302.61 258.562 302.57 259.45L302.549 259.911L302.549 259.919C302.486 261.309 302.424 262.68 302.37 264.02L302.341 264.642L302.289 265.743L302.238 266.819C302.212 267.369 302.186 267.916 302.16 268.46L302.105 269.598L302.039 270.971L301.95 272.8C301.88 274.23 301.81 275.66 301.73 277.08C301.695 277.79 301.658 278.5 301.62 279.21C301.601 279.574 301.582 279.939 301.563 280.303C301.545 280.649 301.527 280.994 301.51 281.34C301.469 282.068 301.431 282.799 301.392 283.531C301.356 284.227 301.319 284.923 301.28 285.62C301.2 287.05 301.12 288.5 301.04 289.96C300.97 291.238 300.892 292.531 300.814 293.839L300.813 293.845L300.813 293.85L300.78 294.4C300.69 295.9 300.6 297.42 300.51 298.97C300.42 300.52 300.32 302.1 300.21 303.72C300.139 304.871 300.063 306.038 299.985 307.227C299.954 307.711 299.922 308.198 299.89 308.69C299.81 309.927 299.725 311.185 299.638 312.464L299.633 312.539C299.602 312.993 299.571 313.45 299.54 313.91C299.503 314.463 299.464 315.024 299.426 315.59C299.383 316.208 299.34 316.833 299.296 317.463L299.285 317.625C299.243 318.222 299.202 318.824 299.16 319.43C301.05 319.36 302.89 319.29 304.69 319.21C305.739 319.169 306.774 319.125 307.796 319.081C308.518 319.05 309.232 319.019 309.94 318.99C310.939 318.949 311.921 318.905 312.89 318.861L312.901 318.861C313.587 318.83 314.266 318.799 314.94 318.77C316.57 318.7 318.16 318.62 319.73 318.54C320.393 318.506 321.049 318.474 321.7 318.443L321.701 318.442L321.703 318.442L321.705 318.442C322.593 318.399 323.47 318.356 324.34 318.31C325.85 318.23 327.34 318.15 328.81 318.07C330.28 317.99 331.74 317.91 333.18 317.83C334.62 317.75 336.05 317.67 337.48 317.58C338.834 317.504 340.169 317.42 341.512 317.334L341.74 317.32L346 317.05C347.43 316.96 348.86 316.87 350.3 316.77C350.831 316.733 351.365 316.698 351.901 316.662L351.905 316.662H351.906H351.906H351.907H351.907H351.908C352.823 316.601 353.745 316.539 354.67 316.47C356.14 316.36 357.63 316.26 359.14 316.16L360.054 316.094L360.061 316.093C361.275 316.005 362.506 315.916 363.75 315.82C365.31 315.7 366.91 315.58 368.54 315.46C370.17 315.33 371.83 315.2 373.54 315.07C375.25 314.94 376.99 314.79 378.78 314.64C379.112 314.612 379.446 314.584 379.782 314.556L379.872 314.549L379.903 314.546L379.912 314.546C381.343 314.426 382.806 314.304 384.3 314.17L384.46 313.142L384.462 313.13C384.681 311.724 384.887 310.401 385.08 309.13C385.32 307.55 385.54 306.07 385.75 304.64C385.824 304.136 385.897 303.64 385.969 303.149L386.208 301.518L386.36 300.48C386.41 300.12 386.461 299.762 386.511 299.405L386.645 298.455C386.74 297.783 386.835 297.11 386.93 296.43C387.12 295.07 387.31 293.7 387.5 292.27C387.593 291.572 387.688 290.862 387.785 290.135L387.788 290.118L387.792 290.084C387.892 289.337 387.995 288.571 388.1 287.78C388.31 286.2 388.52 284.54 388.74 282.74C390.67 282.61 392.5 282.48 394.26 282.35C395.115 282.287 395.949 282.226 396.767 282.166C397.631 282.103 398.477 282.042 399.31 281.98C399.906 281.936 400.495 281.892 401.076 281.848L401.08 281.848C402.077 281.773 403.055 281.699 404.02 281.63C404.97 281.562 405.901 281.49 406.82 281.418L406.84 281.417L407.387 281.374C407.756 281.346 408.124 281.318 408.49 281.29C409.275 281.231 410.052 281.17 410.826 281.108C411.501 281.055 412.174 281.001 412.85 280.95C413.643 280.884 414.434 280.822 415.228 280.759L416.08 280.691C416.319 280.672 416.559 280.653 416.799 280.633L417.21 280.6L417.686 280.561C419 280.454 420.324 280.346 421.68 280.23C422.311 280.176 422.951 280.122 423.599 280.067L423.629 280.065L423.643 280.064C424.542 279.988 425.458 279.911 426.39 279.83L426.879 279.788L427.714 279.716C428.922 279.613 430.162 279.507 431.44 279.39C432.503 279.299 433.592 279.201 434.713 279.101C435.448 279.035 436.196 278.967 436.96 278.9C437.22 277.36 437.43 276.08 437.62 274.89C437.81 273.69 437.99 272.58 438.18 271.39C438.3 270.487 438.443 269.539 438.605 268.469C438.658 268.117 438.713 267.751 438.77 267.37C437.453 267.478 436.187 267.577 434.958 267.673ZM107.402 267.181L106.2 267.13C106.03 266.44 105.64 265.67 104.83 265.05C103.98 264.43 102.67 263.96 100.67 263.87C97.91 263.75 96.36 264.43 95.52 265.37C94.68 266.31 94.54 267.51 94.6 268.42C94.7073 269.708 94.8078 270.866 94.9015 271.945L94.9028 271.961L94.903 271.963L94.9033 271.967L94.96 272.62C95.0119 273.22 95.0639 273.797 95.1148 274.363L95.1152 274.367C95.1719 274.998 95.2273 275.614 95.28 276.23C95.38 277.4 95.49 278.57 95.61 279.84C95.73 281.11 95.86 282.48 96.01 284.04C96.1 284.96 96.43 286.21 97.45 287.26C98.47 288.31 100.18 289.18 103.01 289.33C104.44 289.41 105.6 289.34 106.53 289.11C107.46 288.88 108.15 288.5 108.64 287.96C109.24 287.3 109.49 286.42 109.38 285.46C109.34 284.975 109.307 284.61 109.275 284.245C109.242 283.88 109.21 283.515 109.17 283.03C108.778 283.011 108.44 282.994 108.126 282.978L107.815 282.963L107.37 282.94C106.83 282.913 106.29 282.885 105.57 282.85C105.42 281.13 105.31 279.84 105.2 278.55L105.2 278.549C105.09 277.259 104.98 275.969 104.84 274.25C106.353 274.32 107.831 274.384 109.277 274.446L110.52 274.5L111.537 274.544C113.024 274.609 114.484 274.673 115.91 274.73C116.999 274.78 118.072 274.822 119.133 274.863C119.776 274.889 120.415 274.914 121.05 274.94C122.534 275.002 123.994 275.057 125.431 275.11L125.97 275.13L126.617 275.154H126.617H126.618H126.618H126.619C128.003 275.206 129.36 275.257 130.71 275.3C132.164 275.356 133.593 275.403 135.003 275.45L135.012 275.45L135.31 275.46C136.82 275.51 138.32 275.56 139.8 275.61L139.957 275.615C141.384 275.664 142.802 275.711 144.22 275.75C145.68 275.8 147.14 275.84 148.6 275.88L150.001 275.918C150.991 275.946 151.981 275.973 152.98 276C154.416 276.029 155.851 276.068 157.296 276.107L157.4 276.11C158.166 276.131 158.937 276.149 159.712 276.167C160.435 276.184 161.161 276.201 161.89 276.22C162.602 276.234 163.319 276.251 164.042 276.267C164.85 276.286 165.666 276.304 166.49 276.32C168.04 276.36 169.62 276.39 171.23 276.42C172.84 276.45 174.47 276.48 176.15 276.51C177.83 276.54 179.54 276.57 181.29 276.6C182.219 276.616 183.163 276.629 184.119 276.642C184.963 276.654 185.817 276.666 186.68 276.68C187.534 276.689 188.398 276.701 189.275 276.712C190.287 276.726 191.315 276.739 192.36 276.75C192.4 278.322 192.434 279.823 192.467 281.268L192.467 281.277L192.49 282.3C192.53 284.06 192.57 285.74 192.61 287.35C192.65 288.96 192.69 290.51 192.73 292.03C192.76 293.55 192.8 295.03 192.84 296.5L192.96 300.9C193 302.37 193.04 303.86 193.08 305.37L193.096 305.964L193.096 305.967L193.096 305.969V305.969C193.131 307.292 193.167 308.652 193.21 310.05C193.26 311.67 193.31 313.34 193.36 315.1C193.394 316.291 193.432 317.518 193.472 318.792L193.473 318.824L193.474 318.838C193.492 319.432 193.511 320.035 193.53 320.65C192.685 320.632 191.851 320.616 191.029 320.601C190.013 320.581 189.014 320.562 188.03 320.54C186.25 320.5 184.52 320.46 182.84 320.42C181.908 320.398 180.987 320.373 180.079 320.348L180.075 320.347L180.071 320.347L180.068 320.347C179.344 320.327 178.628 320.308 177.92 320.29C176.32 320.25 174.76 320.21 173.22 320.16C172.52 320.137 171.826 320.117 171.138 320.096L171.136 320.096C170.312 320.072 169.496 320.047 168.69 320.02C167.21 319.97 165.75 319.92 164.3 319.87C162.86 319.82 161.42 319.77 160 319.72C158.57 319.67 157.16 319.62 155.74 319.56C154.32 319.51 152.9 319.45 151.48 319.39C150.817 319.362 150.152 319.332 149.484 319.301L149.466 319.301C148.709 319.266 147.947 319.232 147.18 319.2C145.828 319.144 144.449 319.078 143.061 319.013L143.053 319.012L143.048 319.012L143.041 319.012L143.035 319.012L143.028 319.011L143.022 319.011L142.79 319L142.369 318.98C141.016 318.917 139.646 318.852 138.26 318.78C136.73 318.7 135.16 318.62 133.56 318.54C132.309 318.477 131.034 318.409 129.734 318.339L129.727 318.338L128.64 318.28L127.97 318.244L127.962 318.244C126.495 318.165 124.991 318.085 123.45 317.99C122.668 317.942 121.876 317.895 121.074 317.848C120.05 317.788 119.01 317.727 117.95 317.66C117.818 316.997 117.692 316.367 117.571 315.763L117.571 315.761C117.371 314.761 117.184 313.831 117.01 312.94C116.828 312.009 116.654 311.129 116.483 310.264L116.483 310.263L116.478 310.236C116.388 309.782 116.299 309.332 116.21 308.88C116.017 307.863 115.819 306.853 115.61 305.789C115.548 305.471 115.484 305.149 115.42 304.82C115.182 303.57 114.921 302.227 114.63 300.73L114.624 300.698L114.622 300.688L114.62 300.678L114.62 300.674L114.51 300.11C113.851 300.07 113.289 300.039 112.768 300.011L112.749 300.01L112.737 300.009L112.727 300.009C112.361 299.989 112.016 299.97 111.67 299.95C110.82 299.9 109.96 299.85 108.83 299.79C108.816 300.055 108.806 300.254 108.796 300.451L108.796 300.452C108.79 300.568 108.785 300.683 108.778 300.809C108.773 300.913 108.767 301.024 108.76 301.15C108.69 302.56 108.43 303.88 107.98 305.1C107.54 306.32 106.9 307.45 106.07 308.48C105.24 309.51 104.22 310.45 103.01 311.3C101.8 312.15 100.39 312.91 98.79 313.58C97.85 313.98 96.83 314.33 95.75 314.65C94.67 314.96 93.51 315.24 92.29 315.48C91.07 315.72 89.77 315.91 88.41 316.07C87.05 316.23 85.62 316.34 84.12 316.42C82.62 316.5 81.06 316.54 79.42 316.53C77.79 316.53 76.08 316.48 74.31 316.39C72.54 316.3 70.7 316.17 68.79 316C67.04 315.84 65.33 315.64 63.65 315.41C61.96 315.17 60.31 314.9 58.69 314.59C57.07 314.28 55.47 313.93 53.91 313.55C52.35 313.17 50.81 312.75 49.31 312.29C47.8 311.83 46.33 311.34 44.89 310.81C43.45 310.28 42.04 309.72 40.66 309.12C39.28 308.52 37.93 307.89 36.61 307.22C35.29 306.55 34.01 305.85 32.75 305.12C31.49 304.39 30.27 303.62 29.08 302.82C27.56 301.8 26.13 300.74 24.79 299.65C23.45 298.56 22.19 297.43 21.03 296.26C19.86 295.1 18.79 293.89 17.8 292.64C16.81 291.39 15.91 290.1 15.1 288.77C14.29 287.44 13.57 286.07 12.94 284.65C12.31 283.24 11.77 281.78 11.32 280.27C10.87 278.76 10.51 277.21 10.24 275.61C10.15 275.11 10.11 274.86 10.03 274.36C9.74 272.6 9.58 270.91 9.56 269.29C9.53 267.67 9.64 266.11 9.89 264.62C10.14 263.13 10.52 261.7 11.03 260.33C11.55 258.96 12.2 257.66 12.98 256.41C13.77 255.16 14.69 253.98 15.74 252.85C16.79 251.73 17.98 250.66 19.31 249.64C20.63 248.63 22.09 247.67 23.69 246.76C25.29 245.85 27.02 245 28.89 244.2C29.89 243.77 30.94 243.36 32.02 242.96C33.1 242.57 34.22 242.19 35.38 241.82C36.53 241.45 37.73 241.1 38.96 240.77C40.2 240.44 41.46 240.12 42.77 239.82C44.08 239.52 45.42 239.24 46.8 238.97C48.18 238.7 49.6 238.45 51.05 238.22C52.5 237.99 53.98 237.77 55.51 237.57C57.04 237.37 58.6 237.19 60.19 237.02C61.78 236.86 63.42 236.71 65.08 236.57C66.74 236.43 68.44 236.31 70.18 236.21C71.91 236.1 73.69 236.02 75.49 235.95C77.3 235.88 79.14 235.83 81.01 235.79C82.88 235.75 84.79 235.73 86.73 235.73C88.68 235.73 90.65 235.74 92.66 235.77C94.67 235.8 96.71 235.85 98.79 235.91C100.88 235.97 102.93 236.04 104.95 236.13C106.97 236.22 108.96 236.31 110.91 236.42C112.87 236.52 114.78 236.64 116.67 236.77C118.55 236.9 120.4 237.04 122.22 237.19C124.04 237.34 125.82 237.51 127.57 237.68C129.32 237.86 131.03 238.04 132.71 238.24C134.39 238.44 136.03 238.65 137.64 238.87C139.25 239.09 140.82 239.33 142.36 239.57C143.9 239.82 145.4 240.07 146.87 240.34C148.34 240.61 149.77 240.89 151.17 241.18C152.56 241.47 153.92 241.77 155.25 242.09C156.58 242.4 157.87 242.73 159.12 243.07C160.37 243.41 161.59 243.77 162.77 244.13C163.95 244.49 165.09 244.87 166.2 245.26C167.3 245.64 168.38 246.05 169.41 246.46C171.55 247.31 173.54 248.2 175.39 249.13C177.24 250.06 178.93 251.02 180.47 252.01C182.01 253 183.4 254.03 184.64 255.09C185.88 256.15 186.97 257.24 187.9 258.37C188.84 259.49 189.62 260.65 190.25 261.84C190.88 263.03 191.36 264.26 191.69 265.51C192.01 266.77 192.19 268.05 192.22 269.37V269.46C190.31 269.44 188.45 269.42 186.64 269.39C185.792 269.376 184.953 269.364 184.124 269.352C183.183 269.339 182.254 269.326 181.34 269.31C179.62 269.29 177.94 269.26 176.29 269.23C174.64 269.2 173.03 269.17 171.45 269.14C169.87 269.11 168.32 269.08 166.79 269.05C165.99 269.034 165.199 269.016 164.412 268.998L164.401 268.997L164.39 268.997C163.68 268.981 162.974 268.964 162.27 268.95C160.79 268.92 159.32 268.89 157.86 268.85C157.148 268.831 156.441 268.813 155.736 268.796C154.996 268.778 154.258 268.76 153.52 268.74C152.114 268.711 150.717 268.672 149.312 268.633L149.21 268.63L144.9 268.51C144.202 268.491 143.504 268.469 142.803 268.447L142.381 268.434L141.894 268.419C141.637 268.411 141.38 268.403 141.122 268.396C140.935 268.39 140.748 268.385 140.56 268.38C139.79 268.353 139.015 268.33 138.234 268.306C137.544 268.285 136.849 268.263 136.15 268.24C134.66 268.19 133.16 268.14 131.63 268.09C130.931 268.067 130.229 268.042 129.521 268.017C128.678 267.987 127.829 267.957 126.97 267.93C125.613 267.887 124.234 267.837 122.827 267.785L122.826 267.785H122.825H122.824L122.13 267.76L121.57 267.74L121.568 267.74L121.564 267.74L121.561 267.739L121.559 267.739L121.558 267.739C120.092 267.686 118.602 267.632 117.08 267.57C115.35 267.5 113.59 267.43 111.78 267.36C110.361 267.305 108.91 267.244 107.43 267.182L107.402 267.181ZM201.65 245.23C201.63 243.42 201.61 241.57 201.59 239.66C203.57 239.67 205.5 239.68 207.4 239.72C208.329 239.725 209.247 239.727 210.155 239.73C211.085 239.732 212.004 239.735 212.91 239.74C213.818 239.74 214.713 239.743 215.598 239.745H215.599H215.601H215.602H215.603H215.605C216.472 239.748 217.33 239.75 218.18 239.75C219.9 239.76 221.58 239.76 223.23 239.76H228.1C229.69 239.75 231.27 239.75 232.82 239.75C233.605 239.75 234.383 239.747 235.155 239.745C235.917 239.742 236.675 239.74 237.43 239.74C238.188 239.735 238.943 239.733 239.695 239.73L239.714 239.73L239.734 239.73C240.478 239.727 241.22 239.725 241.96 239.72C242.709 239.715 243.455 239.712 244.2 239.71C244.948 239.708 245.694 239.705 246.44 239.7L250.9 239.67L255.38 239.64C256.88 239.62 258.39 239.61 259.91 239.6C260.379 239.597 260.849 239.593 261.321 239.588L262.17 239.58C262.95 239.573 263.734 239.565 264.52 239.56C265.314 239.55 266.112 239.542 266.918 239.534C267.686 239.527 268.459 239.52 269.24 239.51L271.842 239.478L274.11 239.45C275.76 239.43 277.44 239.41 279.16 239.39C280.88 239.37 282.64 239.35 284.43 239.32C286.099 239.301 287.811 239.274 289.559 239.246L289.94 239.24C290.795 239.226 291.659 239.211 292.535 239.195L292.539 239.195C293.588 239.176 294.651 239.156 295.73 239.14C295.67 241.04 295.61 242.88 295.55 244.67C295.49 246.46 295.43 248.2 295.37 249.9C295.31 251.6 295.25 253.26 295.19 254.88C295.13 256.5 295.07 258.09 295.01 259.64C294.95 261.19 294.89 262.72 294.83 264.22C294.766 265.59 294.71 266.943 294.656 268.279L294.655 268.289L294.64 268.66C294.608 269.441 294.573 270.214 294.539 270.983L294.509 271.647L294.487 272.151C294.474 272.438 294.462 272.724 294.45 273.01C294.419 273.745 294.386 274.475 294.353 275.204L294.352 275.222C294.321 275.914 294.289 276.606 294.26 277.3C294.2 278.73 294.13 280.15 294.06 281.57L293.992 282.967L293.945 283.923C293.913 284.566 293.882 285.211 293.85 285.86L293.84 286.071L293.839 286.076L293.839 286.08L293.839 286.084C293.773 287.45 293.706 288.826 293.63 290.21C293.568 291.51 293.497 292.826 293.426 294.159L293.4 294.65L293.364 295.324C293.296 296.608 293.227 297.912 293.15 299.23C293.06 300.79 292.97 302.37 292.88 303.99C292.811 305.225 292.737 306.484 292.661 307.766L292.661 307.771L292.59 308.97L292.515 310.247C292.44 311.539 292.363 312.856 292.28 314.2C292.245 314.778 292.209 315.361 292.173 315.949L292.171 315.977C292.097 317.203 292.021 318.453 291.94 319.73C289.96 319.81 288.03 319.88 286.16 319.94C285.004 319.983 283.863 320.019 282.74 320.054H282.739H282.738L282.734 320.054C282.25 320.069 281.77 320.084 281.293 320.1L281.149 320.104L280.68 320.12L280.234 320.133C280.01 320.139 279.787 320.146 279.565 320.152L278.668 320.18L278.651 320.18C277.57 320.213 276.506 320.245 275.45 320.27C274.52 320.292 273.605 320.316 272.7 320.341L272.695 320.341L272.691 320.341C271.935 320.362 271.185 320.382 270.44 320.4C269.391 320.432 268.35 320.456 267.32 320.48L267.318 320.48L267.315 320.48L267.312 320.48L267.308 320.48L266.888 320.49L266.361 320.502C266.114 320.508 265.866 320.514 265.62 320.52C264.106 320.558 262.61 320.587 261.132 320.616L261.12 320.617L260.94 320.62C260.189 320.635 259.443 320.647 258.701 320.659C257.92 320.672 257.144 320.685 256.37 320.7C255.741 320.708 255.111 320.719 254.482 320.729L254.125 320.735L254.117 320.735L254.11 320.735L254.102 320.735C253.36 320.748 252.619 320.76 251.88 320.77L247.42 320.83L247.349 320.831H247.347H247.346H247.344H247.344C245.879 320.851 244.424 320.87 242.96 320.88C241.47 320.9 239.98 320.91 238.47 320.92L233.9 320.95C232.36 320.96 230.8 320.97 229.22 320.97H224.4C222.76 320.97 221.1 320.97 219.39 320.96C217.68 320.95 215.94 320.94 214.16 320.93L214.023 320.929L214.003 320.929H214.002C212.272 320.919 210.504 320.909 208.68 320.89L208.451 320.888C206.644 320.868 204.8 320.849 202.9 320.82C202.86 318.91 202.82 317.06 202.78 315.25L202.765 314.554L202.764 314.54C202.73 312.981 202.696 311.465 202.67 309.98C202.654 309.053 202.635 308.138 202.616 307.235L202.615 307.226C202.599 306.466 202.584 305.714 202.57 304.97C202.54 303.34 202.51 301.75 202.48 300.18C202.463 299.319 202.447 298.464 202.43 297.616C202.417 296.929 202.403 296.246 202.39 295.57C202.384 295.263 202.378 294.959 202.373 294.655L202.37 294.474L202.367 294.292L202.352 293.411L202.351 293.393C202.338 292.621 202.326 291.856 202.31 291.09L202.305 290.835C202.277 289.443 202.249 288.077 202.23 286.71C202.226 286.44 202.222 286.17 202.218 285.9C202.21 285.434 202.202 284.969 202.194 284.505C202.182 283.798 202.17 283.093 202.16 282.39C202.15 281.664 202.137 280.94 202.125 280.218C202.112 279.508 202.1 278.799 202.09 278.09C202.06 276.65 202.04 275.22 202.02 273.77C201.99 272.32 201.97 270.86 201.95 269.39C201.93 267.91 201.91 266.42 201.89 264.91C201.87 263.4 201.85 261.87 201.83 260.3C201.81 258.74 201.79 257.14 201.77 255.51C201.75 253.88 201.73 252.21 201.71 250.5C201.69 248.79 201.67 247.03 201.65 245.23ZM368.39 107.09C368.3 105.1 368.21 103.22 368.12 101.43C368.03 99.64 367.94 97.93 367.85 96.28C367.76 94.63 367.67 93.05 367.58 91.5C367.49 89.95 367.4 88.44 367.3 86.94C367.219 85.5951 367.131 84.2663 367.041 82.9248L367.01 82.46L366.985 82.0842C366.893 80.7077 366.801 79.3206 366.7 77.9L366.66 77.3304C366.563 75.9628 366.464 74.5684 366.35 73.12C366.301 72.4919 366.252 71.8566 366.204 71.2113C366.124 70.1613 366.043 69.0848 365.95 67.97C365.81 66.18 365.66 64.3 365.49 62.31C364.721 62.2747 363.982 62.2413 363.267 62.209L363.247 62.2081C362.351 62.1676 361.491 62.1288 360.66 62.09C359.583 62.0397 358.558 61.9947 357.566 61.951L357.544 61.9501C357.161 61.9332 356.784 61.9166 356.41 61.9C355.81 61.8733 355.217 61.8486 354.63 61.8242C353.897 61.7936 353.172 61.7633 352.45 61.73C351.865 61.7075 351.277 61.683 350.685 61.6582L350.684 61.6581C349.961 61.628 349.232 61.5975 348.49 61.57C347.599 61.5304 346.687 61.4952 345.739 61.4586L345.736 61.4585C345.432 61.4467 345.124 61.4349 344.812 61.4226C344.623 61.4152 344.432 61.4077 344.24 61.4C343.554 61.3726 342.848 61.3451 342.119 61.3167C341.254 61.283 340.354 61.248 339.41 61.21C339.398 61.0385 339.386 60.8703 339.375 60.7052C339.348 60.3307 339.324 59.9723 339.3 59.6269C339.247 58.8643 339.198 58.1657 339.15 57.5C339.11 56.945 339.073 56.4125 339.035 55.88C338.997 55.3475 338.96 54.815 338.92 54.26C338.889 53.8304 338.857 53.3903 338.823 52.9298C338.769 52.2006 338.711 51.4204 338.65 50.55C340.42 50.62 342.05 50.69 343.57 50.76C344.721 50.8127 345.809 50.8596 346.866 50.9052L347.9 50.95C349.28 51.01 350.61 51.07 351.94 51.14C353.27 51.21 354.6 51.27 355.98 51.33C357.36 51.4 358.79 51.47 360.31 51.54C361.303 51.5919 362.333 51.6438 363.418 51.6985C364.006 51.728 364.609 51.7584 365.23 51.79C365.102 50.4153 364.975 49.097 364.851 47.8224L364.848 47.7867C364.808 47.3768 364.769 46.9713 364.73 46.57C364.57 44.91 364.41 43.32 364.25 41.78C364.152 40.8419 364.058 39.9226 363.965 39.0175C363.906 38.4464 363.848 37.881 363.79 37.32C363.64 35.88 363.49 34.47 363.33 33.08C363.255 32.425 363.184 31.7745 363.113 31.1264L363.112 31.1212C363.033 30.3955 362.954 29.6728 362.87 28.95C362.748 27.8367 362.62 26.7234 362.49 25.5994L362.4 24.82C362.304 23.9891 362.205 23.1546 362.104 22.3079C362.037 21.7383 361.968 21.1632 361.9 20.58C361.73 19.14 361.55 17.66 361.36 16.12C361.17 14.59 360.97 13 360.76 11.33C360.563 9.76888 360.347 8.13699 360.123 6.43435L360.08 6.11C359.152 6.0409 358.241 5.97179 357.346 5.90389C356.428 5.83423 355.526 5.76583 354.64 5.7C352.89 5.57001 351.2 5.45 349.57 5.34C348.662 5.27353 347.768 5.2132 346.891 5.15391L346.89 5.15386L346.889 5.15378C346.183 5.10607 345.486 5.05903 344.8 5.01C344.158 4.96856 343.522 4.92539 342.893 4.88264L342.892 4.88259C342.003 4.82222 341.126 4.76268 340.26 4.71C339.042 4.62772 337.838 4.5522 336.653 4.47789L335.89 4.43C334.46 4.34 333.03 4.25 331.62 4.17C330.936 4.13119 330.252 4.09002 329.567 4.04879L329.566 4.04873L329.565 4.04868C328.838 4.00496 328.111 3.96116 327.38 3.92C325.97 3.84 324.54 3.76 323.11 3.68C321.67 3.6 320.22 3.52 318.74 3.44C317.26 3.36 315.75 3.28 314.2 3.21C312.65 3.13 311.06 3.05 309.43 2.98C307.79 2.9 306.1 2.82 304.36 2.75C302.61 2.67 300.8 2.59 298.92 2.52C299.04 4.21019 299.152 5.87851 299.263 7.53119L299.32 8.38L299.35 8.83034C299.47 10.6086 299.589 12.3771 299.7 14.12C299.82 16.01 299.94 17.89 300.06 19.74C300.172 21.4739 300.275 23.1818 300.378 24.8798L300.378 24.8916L300.4 25.25L300.441 25.9238C300.537 27.5146 300.632 29.09 300.72 30.65C300.82 32.43 300.92 34.2 301.02 35.95C301.11 37.5237 301.192 39.0893 301.273 40.6396L301.273 40.6472L301.3 41.16C301.39 42.88 301.48 44.59 301.57 46.28C301.652 47.8189 301.726 49.3496 301.799 50.8643L301.82 51.31C301.9 52.97 301.98 54.63 302.06 56.27C302.133 57.7732 302.198 59.2679 302.262 60.7466L302.28 61.15C302.35 62.77 302.42 64.37 302.49 65.97C302.523 66.7197 302.553 67.4651 302.584 68.207C302.618 69.0485 302.653 69.8857 302.69 70.72C302.75 72.3 302.81 73.86 302.87 75.42L302.877 75.6127C302.935 77.1077 302.992 78.5934 303.04 80.07C303.066 80.8685 303.095 81.667 303.123 82.4627C303.15 83.2016 303.176 83.9381 303.2 84.67C303.245 86.0603 303.291 87.4424 303.336 88.8161L303.35 89.23L303.355 89.3802C303.403 90.8495 303.451 92.3094 303.49 93.76C303.51 94.5218 303.533 95.2862 303.556 96.0492C303.578 96.7886 303.6 97.5267 303.62 98.26C303.66 99.76 303.7 101.25 303.74 102.74C303.78 104.23 303.82 105.72 303.85 107.2C303.89 108.69 303.92 110.17 303.95 111.65C303.98 113.13 304.01 114.61 304.04 116.1L304.043 116.267L304.043 116.271C304.072 117.703 304.101 119.117 304.12 120.55C304.135 121.29 304.148 122.033 304.16 122.775C304.172 123.518 304.185 124.26 304.2 125C304.21 125.745 304.223 126.488 304.235 127.23C304.247 127.973 304.26 128.715 304.27 129.46L304.33 133.94C304.34 134.69 304.347 135.44 304.355 136.19C304.362 136.94 304.37 137.69 304.38 138.44C304.4 139.95 304.41 141.45 304.42 142.97L304.45 147.53C304.46 149.06 304.47 150.59 304.47 152.13C304.48 153.67 304.48 155.22 304.48 156.78V161.48C304.48 163.06 304.48 164.64 304.47 166.23C304.47 167.815 304.46 169.42 304.45 171.035L304.45 171.05L304.42 175.93L304.42 175.96C304.41 177.59 304.4 179.23 304.38 180.89C304.37 181.733 304.362 182.575 304.355 183.42C304.347 184.25 304.34 185.083 304.33 185.92C304.31 187.61 304.29 189.32 304.27 191.04C304.263 191.606 304.256 192.175 304.248 192.745C304.244 193.022 304.24 193.299 304.236 193.577L304.236 193.581C304.223 194.467 304.21 195.357 304.2 196.25C304.17 198 304.14 199.77 304.11 201.55C304.099 202.186 304.087 202.826 304.075 203.468L304.062 204.157C304.044 205.086 304.025 206.018 304.01 206.95C303.97 208.77 303.93 210.61 303.89 212.46C303.871 213.339 303.85 214.226 303.828 215.116L303.828 215.135C303.804 216.112 303.781 217.095 303.76 218.08C303.71 219.97 303.66 221.89 303.61 223.82C303.562 225.681 303.504 227.57 303.446 229.469L303.446 229.488L303.44 229.68C305.3 229.65 307.1 229.62 308.84 229.59C310.58 229.56 312.26 229.53 313.9 229.5C315.53 229.47 317.12 229.44 318.67 229.41C320.22 229.38 321.73 229.35 323.21 229.32C324.69 229.29 326.15 229.26 327.58 229.23C329.01 229.2 330.43 229.17 331.84 229.13C333.25 229.09 334.64 229.06 336.04 229.03C336.732 229.015 337.421 228.998 338.111 228.981C338.818 228.963 339.526 228.945 340.24 228.93C341.541 228.902 342.843 228.866 344.168 228.829L344.5 228.82C345.94 228.78 347.39 228.74 348.87 228.71C350.35 228.67 351.86 228.63 353.41 228.59C354.097 228.572 354.792 228.553 355.495 228.533C356.055 228.517 356.619 228.501 357.188 228.486C357.517 228.477 357.848 228.468 358.18 228.46C359.81 228.41 361.5 228.36 363.24 228.31C363.95 228.29 364.67 228.268 365.4 228.245C366.459 228.213 367.539 228.18 368.64 228.15C368.669 227.624 368.698 227.102 368.727 226.583C368.807 225.128 368.886 223.698 368.96 222.29C369.045 220.674 369.122 219.086 369.198 217.521L369.24 216.67C369.33 214.84 369.41 213.04 369.48 211.28C369.531 210.166 369.573 209.064 369.616 207.971L369.616 207.956C369.64 207.328 369.665 206.703 369.69 206.08C369.75 204.38 369.81 202.71 369.87 201.06C369.93 199.41 369.98 197.79 370.02 196.19C370.068 194.638 370.108 193.104 370.146 191.58L370.147 191.563L370.15 191.44L370.159 191.106C370.196 189.651 370.232 188.221 370.26 186.79C370.29 185.25 370.32 183.73 370.35 182.21C370.38 180.69 370.4 179.19 370.42 177.68C370.44 176.18 370.46 174.68 370.47 173.18C370.49 171.68 370.5 170.18 370.51 168.68C370.52 167.18 370.53 165.67 370.53 164.15V159.57C370.53 158.036 370.52 156.491 370.51 154.937V154.936L370.51 154.92L370.51 154.89V154.889C370.5 153.329 370.49 151.759 370.47 150.17C370.466 149.862 370.463 149.554 370.459 149.244C370.457 149.004 370.454 148.764 370.452 148.524C370.441 147.457 370.43 146.381 370.41 145.3C370.394 144.444 370.381 143.577 370.368 142.701L370.368 142.691C370.356 141.893 370.344 141.089 370.33 140.28C370.303 138.734 370.267 137.163 370.231 135.56L370.23 135.536L370.22 135.08L370.214 134.828V134.827C370.176 133.139 370.138 131.433 370.09 129.69L370.082 129.386L370.082 129.383C370.034 127.651 369.986 125.883 369.92 124.07C369.881 122.996 369.845 121.914 369.808 120.82C369.78 119.957 369.751 119.087 369.72 118.21C368.288 118.179 366.946 118.154 365.677 118.13C365.316 118.123 364.96 118.117 364.61 118.11L363.721 118.093C362.463 118.069 361.27 118.046 360.11 118.03C359.429 118.016 358.759 118.004 358.094 117.992C357.365 117.979 356.642 117.966 355.92 117.95C354.54 117.92 353.16 117.9 351.73 117.88C350.57 117.864 349.377 117.841 348.119 117.817L347.23 117.8C346.282 117.782 345.301 117.768 344.274 117.753C343.579 117.743 342.863 117.732 342.12 117.72C342.08 116.22 342.04 114.97 342 113.8C341.98 113.215 341.962 112.652 341.945 112.09C341.928 111.527 341.91 110.965 341.89 110.38L341.867 109.705C341.834 108.727 341.799 107.676 341.75 106.46C343.171 106.492 344.489 106.517 345.742 106.542C346.059 106.548 346.371 106.554 346.68 106.56C348.21 106.59 349.64 106.62 351.02 106.65C352.4 106.68 353.73 106.71 355.06 106.74C356.39 106.77 357.72 106.8 359.1 106.83C359.669 106.842 360.247 106.856 360.837 106.871L360.842 106.871L360.853 106.871C361.688 106.892 362.547 106.912 363.44 106.93C364.99 107.01 366.61 107.05 368.39 107.09ZM431.593 13.0833C432.721 13.2144 433.874 13.3484 435.05 13.49C435.3 14.6449 435.536 15.7928 435.768 16.923C435.926 17.6912 436.082 18.4514 436.24 19.2C436.63 21.05 437 22.86 437.35 24.62C437.71 26.39 438.05 28.11 438.37 29.8C438.7 31.49 439.01 33.15 439.31 34.77C439.61 36.39 439.9 37.99 440.18 39.56C440.46 41.13 440.73 42.67 440.99 44.2C441.163 45.2193 441.332 46.2297 441.499 47.2312C441.583 47.733 441.667 48.2326 441.75 48.73C442 50.23 442.24 51.71 442.47 53.18C442.7 54.65 442.93 56.12 443.15 57.58C443.37 59.04 443.59 60.5 443.8 61.96C444.02 63.42 444.23 64.89 444.43 66.36C444.628 67.8137 444.826 69.2869 445.023 70.7603L445.03 70.81C445.23 72.3 445.43 73.82 445.62 75.34C445.661 75.6693 445.703 75.9999 445.745 76.3319C445.896 77.5324 446.049 78.7501 446.19 79.98C446.252 80.5234 446.316 81.0704 446.38 81.6206C446.5 82.66 446.622 83.7107 446.74 84.77C446.783 85.1634 446.827 85.5579 446.872 85.9538C447.01 87.1987 447.151 88.4578 447.28 89.74C447.333 90.2665 447.387 90.7968 447.441 91.3307C447.561 92.5108 447.683 93.7083 447.8 94.92C447.943 96.3178 448.073 97.747 448.206 99.2029C448.24 99.5802 448.275 99.9592 448.31 100.34C448.47 102.19 448.63 104.09 448.79 106.04C447.12 105.97 445.66 105.91 444.31 105.85C442.95 105.79 441.7 105.74 440.45 105.69L440.422 105.689C439.181 105.639 437.94 105.59 436.6 105.54C435.25 105.48 433.79 105.42 432.12 105.36C432.143 105.675 432.166 105.988 432.188 106.3C432.305 107.903 432.42 109.473 432.52 111.03C432.622 112.616 432.717 114.165 432.811 115.696L432.86 116.49L432.898 117.166C432.985 118.715 433.071 120.248 433.15 121.75C433.231 123.302 433.303 124.822 433.375 126.323L433.4 126.84C433.48 128.51 433.55 130.15 433.61 131.77L433.629 132.283C433.683 133.726 433.735 135.147 433.78 136.56L433.794 136.995C433.839 138.425 433.884 139.832 433.92 141.23L433.926 141.451C433.964 142.916 434.001 144.362 434.03 145.8L434.032 145.892C434.061 147.371 434.09 148.84 434.11 150.29C434.12 151.023 434.127 151.755 434.135 152.485C434.142 153.23 434.15 153.973 434.16 154.71C434.18 156.17 434.19 157.62 434.19 159.08V163.43C434.19 164.874 434.18 166.309 434.17 167.753L434.17 167.77C434.16 169.22 434.14 170.67 434.12 172.12L434.119 172.166C434.1 173.601 434.08 175.046 434.05 176.49L434.046 176.674C434.017 178.074 433.988 179.492 433.95 180.91C433.91 182.4 433.87 183.89 433.82 185.4L433.815 185.542C433.767 187.005 433.718 188.478 433.66 189.97L433.652 190.165C433.595 191.641 433.537 193.127 433.47 194.64C433.41 196.003 433.342 197.373 433.273 198.764L433.24 199.43C433.172 200.801 433.097 202.187 433.021 203.593L432.98 204.36L432.929 205.211C432.846 206.606 432.761 208.021 432.67 209.45L432.638 209.954C432.538 211.512 432.437 213.095 432.32 214.71C432.214 216.299 432.091 217.911 431.967 219.547L431.92 220.17C431.803 221.712 431.673 223.282 431.54 224.879C431.513 225.198 431.487 225.519 431.46 225.84C429.57 225.93 427.79 226.01 426.11 226.08C425.148 226.126 424.216 226.165 423.306 226.203C422.626 226.232 421.959 226.26 421.3 226.29C420.038 226.347 418.816 226.398 417.624 226.447L416.84 226.48C415.4 226.54 413.98 226.6 412.56 226.66C411.14 226.72 409.73 226.78 408.28 226.83C407.163 226.869 406.034 226.913 404.871 226.959C404.524 226.972 404.174 226.986 403.82 227C402.29 227.06 400.69 227.12 399.01 227.18C397.836 227.229 396.624 227.272 395.36 227.318C394.804 227.338 394.237 227.359 393.66 227.38C393.79 225.547 393.903 223.758 394.015 221.988L394.04 221.59C394.16 219.69 394.27 217.83 394.37 216.01C394.471 214.322 394.556 212.667 394.639 211.039L394.66 210.63L394.68 210.235C394.763 208.611 394.845 207.012 394.91 205.43C394.98 203.72 395.05 202.04 395.12 200.39C395.18 198.73 395.24 197.1 395.3 195.49C395.356 193.978 395.404 192.484 395.451 191.007L395.46 190.72C395.507 189.23 395.546 187.748 395.584 186.284L395.59 186.05L395.596 185.822C395.634 184.36 395.671 182.915 395.7 181.47L395.703 181.297C395.732 179.836 395.761 178.393 395.78 176.95C395.793 175.998 395.805 175.049 395.818 174.105L395.84 172.48C395.86 171 395.87 169.52 395.88 168.04L395.88 168.024C395.89 166.549 395.9 165.085 395.9 163.61V159.17C395.9 157.695 395.89 156.211 395.88 154.716L395.88 154.7C395.87 153.2 395.86 151.7 395.84 150.18C395.83 148.67 395.81 147.14 395.78 145.6C395.75 144.06 395.72 142.5 395.69 140.93C395.661 139.438 395.624 137.928 395.586 136.4L395.58 136.16C395.542 134.635 395.496 133.102 395.449 131.552L395.44 131.26C395.394 129.722 395.339 128.166 395.283 126.593L395.27 126.22C395.217 124.703 395.156 123.169 395.094 121.613L395.07 121.02C395 119.26 394.92 117.46 394.83 115.64L394.79 114.831C394.713 113.262 394.635 111.672 394.55 110.06L394.518 109.453C394.428 107.757 394.337 106.03 394.23 104.27C393.403 104.245 392.625 104.221 391.886 104.197C391.131 104.173 390.417 104.15 389.73 104.13C388.488 104.093 387.337 104.057 386.187 104.02L385.86 104.01C384.904 103.987 383.943 103.958 382.935 103.928C382.625 103.919 382.31 103.909 381.99 103.9C381.418 103.883 380.827 103.866 380.209 103.849C379.358 103.825 378.458 103.799 377.49 103.77C377.39 101.83 377.29 99.94 377.18 98.09C377.07 96.24 376.96 94.43 376.85 92.67C376.782 91.5783 376.71 90.4981 376.639 89.4318C376.595 88.7791 376.552 88.1317 376.51 87.49C376.462 86.8207 376.417 86.1561 376.371 85.4962C376.301 84.4898 376.232 83.4945 376.16 82.51C376.04 80.89 375.92 79.29 375.8 77.71C375.68 76.13 375.56 74.58 375.44 73.05C375.32 71.52 375.2 70.01 375.07 68.51C374.94 67.01 374.81 65.52 374.68 64.05C374.55 62.57 374.42 61.11 374.28 59.65C374.15 58.19 374.01 56.73 373.87 55.28C373.73 53.82 373.59 52.37 373.44 50.91C373.29 49.45 373.14 47.98 372.99 46.51C372.866 45.2906 372.736 44.0711 372.604 42.8405L372.52 42.05L372.493 41.7962C372.342 40.3797 372.19 38.9537 372.02 37.51C371.84 35.98 371.66 34.43 371.48 32.85C371.3 31.28 371.11 29.68 370.91 28.05C370.785 27.0329 370.657 26.0042 370.526 24.9638C370.448 24.3368 370.369 23.7055 370.29 23.07C370.08 21.38 369.86 19.65 369.63 17.89C369.4 16.12 369.16 14.32 368.91 12.47C368.66 10.62 368.4 8.73001 368.13 6.79001C369.021 6.86461 369.898 6.93705 370.762 7.00832C371.75 7.08989 372.72 7.16995 373.67 7.25001C374.189 7.29375 374.704 7.33665 375.215 7.37919C376.455 7.48252 377.67 7.58375 378.86 7.69001C380.023 7.78694 381.162 7.88867 382.281 7.98855C382.778 8.03292 383.271 8.07694 383.76 8.12001C384.869 8.22464 385.959 8.32441 387.032 8.42271C387.498 8.46533 387.96 8.50767 388.42 8.55001C389.94 8.69001 391.44 8.83001 392.91 8.97001C394.38 9.11001 395.84 9.25001 397.28 9.39001C398.038 9.46373 398.797 9.54022 399.553 9.61657C400.234 9.68521 400.913 9.75373 401.59 9.82001C402.339 9.89861 403.091 9.97446 403.845 10.0505C404.529 10.1195 405.215 10.1886 405.9 10.26C406.79 10.3466 407.689 10.4408 408.592 10.5356C409.15 10.5941 409.709 10.6528 410.27 10.71C411.74 10.87 413.24 11.03 414.76 11.19C415.456 11.2678 416.157 11.3435 416.867 11.42C417.707 11.5106 418.558 11.6024 419.42 11.7C420.221 11.7906 421.031 11.8813 421.853 11.9732C422.664 12.0638 423.486 12.1557 424.32 12.25C424.791 12.3033 425.266 12.3565 425.745 12.4103C426.974 12.5481 428.229 12.6889 429.51 12.84C430.194 12.9207 430.889 13.0014 431.593 13.0833Z" fill="#FF2257"/>
</svg>
