<svg width="110" height="13" viewBox="0 0 110 13" fill="none" xmlns="http://www.w3.org/2000/svg">
<path fill-rule="evenodd" clip-rule="evenodd" d="M4.46716 7.54065C2.834 5.18847 1.86394 4 0 4V0C4.11253 0 6.19773 3.01272 7.61668 5.06283C7.66275 5.1294 7.70812 5.19495 7.75284 5.25935C9.386 7.61153 10.3561 8.8 12.22 8.8C14.0839 8.8 15.054 7.61153 16.6872 5.25935C16.7319 5.19495 16.7772 5.1294 16.8233 5.06283C18.2423 3.01272 20.3275 0 24.44 0C28.5525 0 30.6377 3.01272 32.0567 5.06284C32.1028 5.1294 32.1481 5.19495 32.1928 5.25935C33.826 7.61153 34.7961 8.8 36.66 8.8C38.5239 8.8 39.494 7.61153 41.1272 5.25935C41.1719 5.19495 41.2173 5.1294 41.2633 5.06283C42.6823 3.01271 44.7675 0 48.88 0C52.9925 0 55.0777 3.01272 56.4967 5.06283C56.5428 5.1294 56.5881 5.19495 56.6328 5.25935C58.266 7.61153 59.2361 8.8 61.1 8.8C62.9639 8.8 63.934 7.61153 65.5672 5.25935C65.6119 5.19495 65.6572 5.12939 65.7033 5.06283C67.1223 3.01271 69.2075 0 73.32 0C77.4325 0 79.5177 3.01271 80.9367 5.06283C80.9827 5.12939 81.0281 5.19495 81.0728 5.25935C82.706 7.61153 83.6761 8.8 85.54 8.8C87.4042 8.8 88.374 7.61146 90.0089 5.25872C90.053 5.19514 90.0978 5.13045 90.1433 5.06477C91.5646 3.01319 93.652 0 97.77 0C101.881 0 103.966 3.01074 105.386 5.06031C105.433 5.12753 105.478 5.19371 105.524 5.25872C107.157 7.60921 108.13 8.8 110 8.8V12.8C105.882 12.8 103.795 9.7868 102.373 7.73522C102.328 7.66954 102.283 7.60485 102.239 7.54128C100.604 5.18854 99.6342 4 97.77 4C95.8998 4 94.927 5.19079 93.2936 7.54128C93.2485 7.60629 93.2026 7.67246 93.1561 7.73968C91.7364 9.78924 89.651 12.8 85.54 12.8C81.4275 12.8 79.3423 9.78729 77.9233 7.73717C77.8773 7.67061 77.8319 7.60505 77.7872 7.54065C76.154 5.18847 75.1839 4 73.32 4C71.4561 4 70.486 5.18847 68.8528 7.54065C68.8081 7.60505 68.7627 7.67061 68.7167 7.73717C67.2977 9.78729 65.2125 12.8 61.1 12.8C56.9875 12.8 54.9023 9.78728 53.4833 7.73717C53.4372 7.6706 53.3919 7.60505 53.3472 7.54065C51.714 5.18847 50.7439 4 48.88 4C47.0161 4 46.046 5.18847 44.4128 7.54065C44.3681 7.60505 44.3228 7.6706 44.2767 7.73717C42.8577 9.78728 40.7725 12.8 36.66 12.8C32.5475 12.8 30.4623 9.78728 29.0433 7.73717C28.9972 7.6706 28.9519 7.60505 28.9072 7.54065C27.274 5.18847 26.3039 4 24.44 4C22.5761 4 21.606 5.18847 19.9728 7.54065C19.9281 7.60505 19.8828 7.6706 19.8367 7.73717C18.4177 9.78728 16.3325 12.8 12.22 12.8C8.10747 12.8 6.02227 9.78728 4.60332 7.73717C4.55725 7.6706 4.51188 7.60505 4.46716 7.54065Z" fill="#FF2257"/>
</svg>
